G04*
G04 #@! TF.GenerationSoftware,Altium Limited,Altium Designer,18.1.8 (232)*
G04*
G04 Layer_Color=2752767*
%FSLAX25Y25*%
%MOIN*%
G70*
G01*
G75*
%ADD10C,0.01000*%
%ADD106C,0.00200*%
%ADD109C,0.00267*%
D10*
X275737Y29679D02*
G03*
X393701Y175365I-39370J152480D01*
G01*
X-118110Y177165D02*
G03*
X0Y24686I157480J0D01*
G01*
X344488Y88583D02*
G03*
X344488Y88583I-19685J0D01*
G01*
X365158Y433071D02*
G03*
X365158Y433071I-10827J0D01*
G01*
X393701Y374016D02*
G03*
X236221Y531496I-157480J0D01*
G01*
X344488Y462598D02*
G03*
X344488Y462598I-19685J0D01*
G01*
X365158Y118110D02*
G03*
X365158Y118110I-10827J0D01*
G01*
X-67913D02*
G03*
X-67913Y118110I-10827J0D01*
G01*
X39370Y531496D02*
G03*
X-118110Y374016I0J-157480D01*
G01*
X-67913Y433071D02*
G03*
X-67913Y433071I-10827J0D01*
G01*
X-29528Y462598D02*
G03*
X-29528Y462598I-19685J0D01*
G01*
Y88583D02*
G03*
X-29528Y88583I-19685J0D01*
G01*
X29528Y403543D02*
G03*
X9843Y383858I0J-19685D01*
G01*
X265748D02*
G03*
X246063Y403543I-19685J0D01*
G01*
Y147638D02*
G03*
X265748Y167323I0J19685D01*
G01*
X9843D02*
G03*
X29528Y147638I19685J0D01*
G01*
X0Y0D02*
X275590D01*
X0D02*
Y24686D01*
X275590Y0D02*
Y29679D01*
X393701Y175365D02*
X393701Y374016D01*
X-118110Y177165D02*
Y374016D01*
X39370Y531496D02*
X78740D01*
X196850D02*
X236221D01*
X196850D02*
Y551181D01*
X78740Y531496D02*
Y551181D01*
X196850D01*
X9843Y167323D02*
Y383858D01*
X29528Y403543D02*
X246063D01*
X265748Y167323D02*
Y383858D01*
X29528Y147638D02*
X246063D01*
D106*
X316200Y117700D02*
Y119300D01*
X317800D01*
Y117700D01*
X316200D01*
X326200D02*
Y119300D01*
X327800D01*
Y117700D01*
X326200D01*
X336200D02*
Y119300D01*
X337800D01*
Y117700D01*
X336200D01*
X-61800Y117200D02*
Y118800D01*
X-60200D01*
Y117200D01*
X-61800D01*
X-51800D02*
Y118800D01*
X-50200D01*
Y117200D01*
X-51800D01*
X-41800D02*
Y118800D01*
X-40200D01*
Y117200D01*
X-41800D01*
X165833Y453065D02*
X165033Y454665D01*
X166633D01*
X165833Y453065D01*
X152054D02*
X151254Y454665D01*
X152854D01*
X152054Y453065D01*
X365899Y147679D02*
X366299Y148079D01*
X366699D01*
X366299Y148479D01*
X366699Y148879D01*
X366299D01*
X365899Y149279D01*
X365499Y148879D01*
X365099D01*
X365499Y148479D01*
X365099Y148079D01*
X365499D01*
X365899Y147679D01*
X365742Y204766D02*
X366142Y205166D01*
X366542D01*
X366142Y205566D01*
X366542Y205966D01*
X366142D01*
X365742Y206366D01*
X365342Y205966D01*
X364942D01*
X365342Y205566D01*
X364942Y205166D01*
X365342D01*
X365742Y204766D01*
X284444Y46074D02*
X284844Y46474D01*
X285244D01*
X284844Y46874D01*
X285244Y47274D01*
X284844D01*
X284444Y47674D01*
X284044Y47274D01*
X283644D01*
X284044Y46874D01*
X283644Y46474D01*
X284044D01*
X284444Y46074D01*
X227357Y45917D02*
X227757Y46317D01*
X228157D01*
X227757Y46717D01*
X228157Y47117D01*
X227757D01*
X227357Y47517D01*
X226957Y47117D01*
X226557D01*
X226957Y46717D01*
X226557Y46317D01*
X226957D01*
X227357Y45917D01*
X47944Y46074D02*
X48344Y46474D01*
X48744D01*
X48344Y46874D01*
X48744Y47274D01*
X48344D01*
X47944Y47674D01*
X47544Y47274D01*
X47144D01*
X47544Y46874D01*
X47144Y46474D01*
X47544D01*
X47944Y46074D01*
X-9143Y45917D02*
X-8743Y46317D01*
X-8343D01*
X-8743Y46717D01*
X-8343Y47117D01*
X-8743D01*
X-9143Y47517D01*
X-9543Y47117D01*
X-9943D01*
X-9543Y46717D01*
X-9943Y46317D01*
X-9543D01*
X-9143Y45917D01*
X303644Y133622D02*
X304044Y134422D01*
X303644Y135222D01*
X304444Y134822D01*
X305244Y135222D01*
X304844Y134422D01*
X305244Y133622D01*
X304444Y134022D01*
X303644Y133622D01*
Y123622D02*
X304044Y124422D01*
X303644Y125222D01*
X304444Y124822D01*
X305244Y125222D01*
X304844Y124422D01*
X305244Y123622D01*
X304444Y124022D01*
X303644Y123622D01*
X-29856Y134122D02*
X-29456Y134922D01*
X-29856Y135722D01*
X-29056Y135322D01*
X-28256Y135722D01*
X-28656Y134922D01*
X-28256Y134122D01*
X-29056Y134522D01*
X-29856Y134122D01*
Y124122D02*
X-29456Y124922D01*
X-29856Y125722D01*
X-29056Y125322D01*
X-28256Y125722D01*
X-28656Y124922D01*
X-28256Y124122D01*
X-29056Y124522D01*
X-29856Y124122D01*
X372944Y273565D02*
X372144Y275165D01*
X373744D01*
X372944Y273565D01*
Y283565D02*
X372144Y285165D01*
X373744D01*
X372944Y283565D01*
Y293565D02*
X372144Y295165D01*
X373744D01*
X372944Y293565D01*
Y303565D02*
X372144Y305165D01*
X373744D01*
X372944Y303565D01*
X282444Y267565D02*
X281644Y269165D01*
X283244D01*
X282444Y267565D01*
Y277565D02*
X281644Y279165D01*
X283244D01*
X282444Y277565D01*
Y287565D02*
X281644Y289165D01*
X283244D01*
X282444Y287565D01*
Y297565D02*
X281644Y299165D01*
X283244D01*
X282444Y297565D01*
Y307565D02*
X281644Y309165D01*
X283244D01*
X282444Y307565D01*
X-89424Y389983D02*
X-90224Y391583D01*
X-88624D01*
X-89424Y389983D01*
Y360062D02*
X-90224Y361662D01*
X-88624D01*
X-89424Y360062D01*
X91444Y425065D02*
X90644Y426665D01*
X92244D01*
X91444Y425065D01*
X81444D02*
X80644Y426665D01*
X82244D01*
X81444Y425065D01*
X71444D02*
X70644Y426665D01*
X72244D01*
X71444Y425065D01*
X61444D02*
X60644Y426665D01*
X62244D01*
X61444Y425065D01*
X51444D02*
X50644Y426665D01*
X52244D01*
X51444Y425065D01*
X156048Y527095D02*
Y526695D01*
X156848D01*
Y527095D01*
X157248D01*
Y527895D01*
X156848D01*
Y528295D01*
X156048D01*
Y527895D01*
X155648D01*
Y527095D01*
X156048D01*
X137144Y540474D02*
X137544D01*
X137944Y540874D01*
X138344Y540474D01*
X138744D01*
Y540874D01*
X138344Y541274D01*
X138744Y541674D01*
Y542074D01*
X138344D01*
X137944Y541674D01*
X137544Y542074D01*
X137144D01*
Y541674D01*
X137544Y541274D01*
X137144Y540874D01*
Y540474D01*
Y516065D02*
X137544D01*
X137944Y516465D01*
X138344Y516065D01*
X138744D01*
Y516465D01*
X138344Y516865D01*
X138744Y517265D01*
Y517665D01*
X138344D01*
X137944Y517265D01*
X137544Y517665D01*
X137144D01*
Y517265D01*
X137544Y516865D01*
X137144Y516465D01*
Y516065D01*
X326176Y131198D02*
X326976Y131998D01*
X327776Y131198D01*
X326976Y130398D01*
X326176Y131198D01*
X290200Y144000D02*
X291000Y144800D01*
X291800Y144000D01*
X291000Y143200D01*
X290200Y144000D01*
X323137Y142611D02*
X323937Y143411D01*
X324737Y142611D01*
X323937Y141811D01*
X323137Y142611D01*
X-61756Y132166D02*
X-60956Y132966D01*
X-60156Y132166D01*
X-60956Y131366D01*
X-61756Y132166D01*
X251644Y106365D02*
X252444Y107165D01*
X253244Y106365D01*
X252444Y105565D01*
X251644Y106365D01*
X325644Y320365D02*
X326444Y321165D01*
X327244Y320365D01*
X326444Y319565D01*
X325644Y320365D01*
X352565Y173490D02*
X353365Y174290D01*
X354165Y173490D01*
X353365Y172690D01*
X352565Y173490D01*
X307294Y232865D02*
X308094Y233665D01*
X308894Y232865D01*
X308094Y232065D01*
X307294Y232865D01*
X26144Y30865D02*
X26944Y31665D01*
X27744Y30865D01*
X26944Y30065D01*
X26144Y30865D01*
X335201Y196865D02*
X336001Y197665D01*
X336801Y196865D01*
X336001Y196065D01*
X335201Y196865D01*
X346377D02*
X347177Y197665D01*
X347977Y196865D01*
X347177Y196065D01*
X346377Y196865D01*
X346644Y184865D02*
X347444Y185665D01*
X348244Y184865D01*
X347444Y184065D01*
X346644Y184865D01*
X343144Y157846D02*
X343944Y158646D01*
X344744Y157846D01*
X343944Y157046D01*
X343144Y157846D01*
X294644Y96865D02*
X295444Y97665D01*
X296244Y96865D01*
X295444Y96065D01*
X294644Y96865D01*
X-54431Y373365D02*
X-53631Y374165D01*
X-52831Y373365D01*
X-53631Y372565D01*
X-54431Y373365D01*
X-86444Y184077D02*
X-85644Y184877D01*
X-84844Y184077D01*
X-85644Y183277D01*
X-86444Y184077D01*
X283056Y83638D02*
X283856Y84438D01*
X284656Y83638D01*
X283856Y82838D01*
X283056Y83638D01*
X262144Y64778D02*
X262944Y65578D01*
X263744Y64778D01*
X262944Y63978D01*
X262144Y64778D01*
X64644Y73865D02*
X65444Y74665D01*
X66244Y73865D01*
X65444Y73065D01*
X64644Y73865D01*
X99644Y73365D02*
X100444Y74165D01*
X101244Y73365D01*
X100444Y72565D01*
X99644Y73365D01*
X8144Y69902D02*
X8944Y70702D01*
X9744Y69902D01*
X8944Y69102D01*
X8144Y69902D01*
X268644Y63365D02*
X269444Y64165D01*
X270244Y63365D01*
X269444Y62565D01*
X268644Y63365D01*
X126644Y73365D02*
X127444Y74165D01*
X128244Y73365D01*
X127444Y72565D01*
X126644Y73365D01*
X7144Y125865D02*
X7944Y126665D01*
X8744Y125865D01*
X7944Y125065D01*
X7144Y125865D01*
X-5856Y122365D02*
X-5056Y123165D01*
X-4256Y122365D01*
X-5056Y121565D01*
X-5856Y122365D01*
X118144Y95365D02*
X118944Y96165D01*
X119744Y95365D01*
X118944Y94565D01*
X118144Y95365D01*
X250238Y86459D02*
X251038Y87259D01*
X251838Y86459D01*
X251038Y85659D01*
X250238Y86459D01*
X269644Y108379D02*
X270444Y109179D01*
X271244Y108379D01*
X270444Y107579D01*
X269644Y108379D01*
X216644Y106275D02*
X217444Y107076D01*
X218244Y106275D01*
X217444Y105475D01*
X216644Y106275D01*
X237644D02*
X238444Y107076D01*
X239244Y106275D01*
X238444Y105475D01*
X237644Y106275D01*
X220644Y109365D02*
X221444Y110165D01*
X222244Y109365D01*
X221444Y108565D01*
X220644Y109365D01*
X59144Y105865D02*
X59944Y106665D01*
X60744Y105865D01*
X59944Y105065D01*
X59144Y105865D01*
X97144Y104365D02*
X97944Y105165D01*
X98744Y104365D01*
X97944Y103565D01*
X97144Y104365D01*
X148644D02*
X149444Y105165D01*
X150244Y104365D01*
X149444Y103565D01*
X148644Y104365D01*
X175994D02*
X176794Y105165D01*
X177594Y104365D01*
X176794Y103565D01*
X175994Y104365D01*
X203994Y87015D02*
X204794Y87815D01*
X205594Y87015D01*
X204794Y86215D01*
X203994Y87015D01*
X78644Y93865D02*
X79444Y94665D01*
X80244Y93865D01*
X79444Y93065D01*
X78644Y93865D01*
X33644Y112365D02*
X34444Y113165D01*
X35244Y112365D01*
X34444Y111565D01*
X33644Y112365D01*
X226557Y116034D02*
X227357Y116834D01*
X228157Y116034D01*
X227357Y115234D01*
X226557Y116034D01*
X148515Y115993D02*
X149315Y116794D01*
X150115Y115993D01*
X149315Y115193D01*
X148515Y115993D01*
X-10072D02*
X-9272Y116794D01*
X-8472Y115993D01*
X-9272Y115193D01*
X-10072Y115993D01*
X325293Y358865D02*
X326093Y359665D01*
X326893Y358865D01*
X326093Y358065D01*
X325293Y358865D01*
X301034Y191365D02*
X301834Y192165D01*
X302634Y191365D01*
X301834Y190565D01*
X301034Y191365D01*
X289644D02*
X290444Y192165D01*
X291244Y191365D01*
X290444Y190565D01*
X289644Y191365D01*
X325644Y210865D02*
X326444Y211665D01*
X327244Y210865D01*
X326444Y210065D01*
X325644Y210865D01*
X380597Y209865D02*
X381397Y210665D01*
X382197Y209865D01*
X381397Y209065D01*
X380597Y209865D01*
X360144Y188365D02*
X360944Y189165D01*
X361744Y188365D01*
X360944Y187565D01*
X360144Y188365D01*
X314644Y326365D02*
X315444Y327165D01*
X316244Y326365D01*
X315444Y325565D01*
X314644Y326365D01*
X327644Y286865D02*
X328444Y287665D01*
X329244Y286865D01*
X328444Y286065D01*
X327644Y286865D01*
X322144Y267365D02*
X322944Y268165D01*
X323744Y267365D01*
X322944Y266565D01*
X322144Y267365D01*
X384144Y391365D02*
X384944Y392165D01*
X385744Y391365D01*
X384944Y390565D01*
X384144Y391365D01*
X289144Y369365D02*
X289944Y370165D01*
X290744Y369365D01*
X289944Y368565D01*
X289144Y369365D01*
X317662Y391265D02*
X318462Y392065D01*
X319262Y391265D01*
X318462Y390465D01*
X317662Y391265D01*
X348732Y220865D02*
X349532Y221665D01*
X350332Y220865D01*
X349532Y220065D01*
X348732Y220865D01*
X368544Y214365D02*
X369344Y215165D01*
X370144Y214365D01*
X369344Y213565D01*
X368544Y214365D01*
X374708Y338365D02*
X375508Y339165D01*
X376308Y338365D01*
X375508Y337565D01*
X374708Y338365D01*
X281144Y364865D02*
X281944Y365665D01*
X282744Y364865D01*
X281944Y364065D01*
X281144Y364865D01*
X354144Y307865D02*
X354944Y308665D01*
X355744Y307865D01*
X354944Y307065D01*
X354144Y307865D01*
X298644Y403206D02*
X299444Y404006D01*
X300244Y403206D01*
X299444Y402407D01*
X298644Y403206D01*
X356933Y312865D02*
X357733Y313665D01*
X358533Y312865D01*
X357733Y312065D01*
X356933Y312865D01*
X360905Y311365D02*
X361705Y312165D01*
X362505Y311365D01*
X361705Y310565D01*
X360905Y311365D01*
X329144Y280365D02*
X329944Y281165D01*
X330744Y280365D01*
X329944Y279565D01*
X329144Y280365D01*
X329191Y275865D02*
X329991Y276665D01*
X330791Y275865D01*
X329991Y275065D01*
X329191Y275865D01*
X307294Y213515D02*
X308094Y214315D01*
X308894Y213515D01*
X308094Y212715D01*
X307294Y213515D01*
X367310Y398199D02*
X368110Y398999D01*
X368910Y398199D01*
X368110Y397399D01*
X367310Y398199D01*
X-9956Y143865D02*
X-9156Y144665D01*
X-8356Y143865D01*
X-9156Y143065D01*
X-9956Y143865D01*
X-46356Y147638D02*
X-45556Y148438D01*
X-44756Y147638D01*
X-45556Y146838D01*
X-46356Y147638D01*
X-64356Y395870D02*
X-63556Y396670D01*
X-62756Y395870D01*
X-63556Y395070D01*
X-64356Y395870D01*
X7144Y403545D02*
X7944Y404345D01*
X8744Y403545D01*
X7944Y402745D01*
X7144Y403545D01*
X-39356Y189865D02*
X-38556Y190665D01*
X-37756Y189865D01*
X-38556Y189065D01*
X-39356Y189865D01*
X25549Y416865D02*
X26349Y417665D01*
X27149Y416865D01*
X26349Y416065D01*
X25549Y416865D01*
X-5356Y403545D02*
X-4556Y404345D01*
X-3756Y403545D01*
X-4556Y402745D01*
X-5356Y403545D01*
X-10072Y379865D02*
X-9272Y380665D01*
X-8472Y379865D01*
X-9272Y379065D01*
X-10072Y379865D01*
X-32320Y359865D02*
X-31520Y360665D01*
X-30720Y359865D01*
X-31520Y359065D01*
X-32320Y359865D01*
X212144Y425913D02*
X212944Y426713D01*
X213744Y425913D01*
X212944Y425113D01*
X212144Y425913D01*
X146644Y425865D02*
X147444Y426665D01*
X148244Y425865D01*
X147444Y425065D01*
X146644Y425865D01*
D109*
X112244Y50365D02*
G03*
X112244Y50365I-800J0D01*
G01*
X122322D02*
G03*
X122322Y50365I-800J0D01*
G01*
X142322D02*
G03*
X142322Y50365I-800J0D01*
G01*
X162322D02*
G03*
X162322Y50365I-800J0D01*
G01*
X142322Y20365D02*
G03*
X142322Y20365I-800J0D01*
G01*
X122322D02*
G03*
X122322Y20365I-800J0D01*
G01*
X152322Y50365D02*
G03*
X152322Y50365I-800J0D01*
G01*
X132322D02*
G03*
X132322Y50365I-800J0D01*
G01*
X162322Y20365D02*
G03*
X162322Y20365I-800J0D01*
G01*
X152322D02*
G03*
X152322Y20365I-800J0D01*
G01*
X132322D02*
G03*
X132322Y20365I-800J0D01*
G01*
X112244D02*
G03*
X112244Y20365I-800J0D01*
G01*
X161934Y73286D02*
G03*
X161934Y73286I-800J0D01*
G01*
Y63443D02*
G03*
X161934Y63443I-800J0D01*
G01*
X180244Y487928D02*
G03*
X180244Y487928I-800J0D01*
G01*
Y495802D02*
G03*
X180244Y495802I-800J0D01*
G01*
X321558Y183365D02*
G03*
X321558Y183365I-800J0D01*
G01*
X329432D02*
G03*
X329432Y183365I-800J0D01*
G01*
X298307Y380865D02*
G03*
X298307Y380865I-800J0D01*
G01*
X306181D02*
G03*
X306181Y380865I-800J0D01*
G01*
X231322Y496786D02*
G03*
X231322Y496786I-800J0D01*
G01*
X241165D02*
G03*
X241165Y496786I-800J0D01*
G01*
X-94894Y139928D02*
G03*
X-94894Y139928I-800J0D01*
G01*
Y147802D02*
G03*
X-94894Y147802I-800J0D01*
G01*
M02*
