G04*
G04 #@! TF.GenerationSoftware,Altium Limited,Altium Designer,18.1.8 (232)*
G04*
G04 Layer_Color=128*
%FSLAX25Y25*%
%MOIN*%
G70*
G01*
G75*
%ADD10C,0.01000*%
%ADD106C,0.00200*%
D10*
X275737Y29679D02*
G03*
X393701Y175365I-39370J152480D01*
G01*
X-118110Y177165D02*
G03*
X0Y24686I157480J0D01*
G01*
X344488Y88583D02*
G03*
X344488Y88583I-19685J0D01*
G01*
X365158Y433071D02*
G03*
X365158Y433071I-10827J0D01*
G01*
X393701Y374016D02*
G03*
X236221Y531496I-157480J0D01*
G01*
X344488Y462598D02*
G03*
X344488Y462598I-19685J0D01*
G01*
X365158Y118110D02*
G03*
X365158Y118110I-10827J0D01*
G01*
X-67913D02*
G03*
X-67913Y118110I-10827J0D01*
G01*
X39370Y531496D02*
G03*
X-118110Y374016I0J-157480D01*
G01*
X-67913Y433071D02*
G03*
X-67913Y433071I-10827J0D01*
G01*
X-29528Y462598D02*
G03*
X-29528Y462598I-19685J0D01*
G01*
Y88583D02*
G03*
X-29528Y88583I-19685J0D01*
G01*
X29528Y403543D02*
G03*
X9843Y383858I0J-19685D01*
G01*
X265748D02*
G03*
X246063Y403543I-19685J0D01*
G01*
Y147638D02*
G03*
X265748Y167323I0J19685D01*
G01*
X9843D02*
G03*
X29528Y147638I19685J0D01*
G01*
X0Y0D02*
X275590D01*
X0D02*
Y24686D01*
X275590Y0D02*
Y29679D01*
X393701Y175365D02*
X393701Y374016D01*
X-118110Y177165D02*
Y374016D01*
X39370Y531496D02*
X78740D01*
X196850D02*
X236221D01*
X196850D02*
Y551181D01*
X78740Y531496D02*
Y551181D01*
X196850D01*
X9843Y167323D02*
Y383858D01*
X29528Y403543D02*
X246063D01*
X265748Y167323D02*
Y383858D01*
X29528Y147638D02*
X246063D01*
D106*
X315032Y118500D02*
X318969D01*
X317000Y116532D02*
Y120468D01*
X325031Y118500D02*
X328969D01*
X327000Y116532D02*
Y120468D01*
X335032Y118500D02*
X338968D01*
X337000Y116532D02*
Y120468D01*
X-62968Y118000D02*
X-59031D01*
X-61000Y116032D02*
Y119968D01*
X-52969Y118000D02*
X-49031D01*
X-51000Y116032D02*
Y119968D01*
X-42968Y118000D02*
X-39031D01*
X-41000Y116032D02*
Y119968D01*
X109869Y50365D02*
X113018D01*
X111444Y48790D02*
Y51940D01*
X119948Y50365D02*
X123097D01*
X121522Y48790D02*
Y51940D01*
X139947Y50365D02*
X143097D01*
X141522Y48790D02*
Y51940D01*
X159948Y50365D02*
X163097D01*
X161522Y48790D02*
Y51940D01*
X139947Y20365D02*
X143097D01*
X141522Y18790D02*
Y21940D01*
X119948Y20365D02*
X123097D01*
X121522Y18790D02*
Y21940D01*
X149948Y50365D02*
X153097D01*
X151522Y48790D02*
Y51940D01*
X129947Y50365D02*
X133097D01*
X131522Y48790D02*
Y51940D01*
X159948Y20365D02*
X163097D01*
X161522Y18790D02*
Y21940D01*
X149948Y20365D02*
X153097D01*
X151522Y18790D02*
Y21940D01*
X129947Y20365D02*
X133097D01*
X131522Y18790D02*
Y21940D01*
X109869Y20365D02*
X113018D01*
X111444Y18790D02*
Y21940D01*
X159559Y73286D02*
X162709D01*
X161134Y71711D02*
Y74861D01*
X159559Y63443D02*
X162709D01*
X161134Y61869D02*
Y65018D01*
X164062Y453865D02*
X167605D01*
X165833Y452093D02*
Y455636D01*
X150282Y453865D02*
X153825D01*
X152054Y452093D02*
Y455636D01*
X177869Y487928D02*
X181018D01*
X179444Y486353D02*
Y489502D01*
X177869Y495802D02*
X181018D01*
X179444Y494227D02*
Y497377D01*
X361962Y148479D02*
X369836D01*
X365899Y144542D02*
Y152416D01*
X361805Y205566D02*
X369679D01*
X365742Y201629D02*
Y209503D01*
X280507Y46874D02*
X288381D01*
X284444Y42937D02*
Y50811D01*
X223420Y46717D02*
X231294D01*
X227357Y42780D02*
Y50654D01*
X44007Y46874D02*
X51881D01*
X47944Y42937D02*
Y50811D01*
X-13080Y46717D02*
X-5206D01*
X-9143Y42780D02*
Y50654D01*
X302644Y134422D02*
X306244D01*
X304444Y132622D02*
Y136222D01*
X302644Y124422D02*
X306244D01*
X304444Y122622D02*
Y126222D01*
X-30856Y134922D02*
X-27256D01*
X-29056Y133122D02*
Y136722D01*
X-30856Y124922D02*
X-27256D01*
X-29056Y123122D02*
Y126722D01*
X371172Y274365D02*
X374715D01*
X372944Y272593D02*
Y276136D01*
X371172Y284365D02*
X374715D01*
X372944Y282593D02*
Y286136D01*
X371172Y294365D02*
X374715D01*
X372944Y292593D02*
Y296136D01*
X371172Y304365D02*
X374715D01*
X372944Y302593D02*
Y306136D01*
X280672Y268365D02*
X284215D01*
X282444Y266593D02*
Y270136D01*
X280672Y278365D02*
X284215D01*
X282444Y276593D02*
Y280136D01*
X280672Y288365D02*
X284215D01*
X282444Y286593D02*
Y290136D01*
X280672Y298365D02*
X284215D01*
X282444Y296593D02*
Y300136D01*
X280672Y308365D02*
X284215D01*
X282444Y306593D02*
Y310136D01*
X319183Y183365D02*
X322333D01*
X320758Y181790D02*
Y184940D01*
X327057Y183365D02*
X330207D01*
X328632Y181790D02*
Y184940D01*
X295932Y380865D02*
X299081D01*
X297507Y379290D02*
Y382440D01*
X303806Y380865D02*
X306956D01*
X305381Y379290D02*
Y382440D01*
X-91196Y390783D02*
X-87653D01*
X-89424Y389011D02*
Y392554D01*
X-91196Y360861D02*
X-87653D01*
X-89424Y359090D02*
Y362633D01*
X228948Y496786D02*
X232097D01*
X230522Y495211D02*
Y498361D01*
X238790Y496786D02*
X241940D01*
X240365Y495211D02*
Y498361D01*
X-97268Y139928D02*
X-94119D01*
X-95694Y138353D02*
Y141502D01*
X-97268Y147802D02*
X-94119D01*
X-95694Y146227D02*
Y149377D01*
X89672Y425865D02*
X93215D01*
X91444Y424093D02*
Y427636D01*
X79672Y425865D02*
X83215D01*
X81444Y424093D02*
Y427636D01*
X69672Y425865D02*
X73215D01*
X71444Y424093D02*
Y427636D01*
X59672Y425865D02*
X63215D01*
X61444Y424093D02*
Y427636D01*
X49672Y425865D02*
X53215D01*
X51444Y424093D02*
Y427636D01*
X154873Y527495D02*
X158022D01*
X156448Y525920D02*
Y529070D01*
X136369Y541274D02*
X139518D01*
X137944Y539699D02*
Y542849D01*
X136369Y516865D02*
X139518D01*
X137944Y515290D02*
Y518440D01*
X326476Y131198D02*
X327476D01*
X326976Y130698D02*
Y131698D01*
X290500Y144000D02*
X291500D01*
X291000Y143500D02*
Y144500D01*
X323437Y142611D02*
X324437D01*
X323937Y142111D02*
Y143111D01*
X-61456Y132166D02*
X-60456D01*
X-60956Y131666D02*
Y132666D01*
X251944Y106365D02*
X252944D01*
X252444Y105865D02*
Y106865D01*
X325944Y320365D02*
X326944D01*
X326444Y319865D02*
Y320865D01*
X352865Y173490D02*
X353865D01*
X353365Y172990D02*
Y173990D01*
X307594Y232865D02*
X308594D01*
X308094Y232365D02*
Y233365D01*
X26444Y30865D02*
X27444D01*
X26944Y30365D02*
Y31365D01*
X335501Y196865D02*
X336501D01*
X336001Y196365D02*
Y197365D01*
X346677Y196865D02*
X347677D01*
X347177Y196365D02*
Y197365D01*
X346944Y184865D02*
X347944D01*
X347444Y184365D02*
Y185365D01*
X343444Y157846D02*
X344444D01*
X343944Y157346D02*
Y158346D01*
X294944Y96865D02*
X295944D01*
X295444Y96365D02*
Y97365D01*
X-54131Y373365D02*
X-53131D01*
X-53631Y372865D02*
Y373865D01*
X-86144Y184077D02*
X-85144D01*
X-85644Y183577D02*
Y184577D01*
X283356Y83638D02*
X284356D01*
X283856Y83138D02*
Y84138D01*
X262444Y64778D02*
X263444D01*
X262944Y64278D02*
Y65278D01*
X64944Y73865D02*
X65944D01*
X65444Y73365D02*
Y74365D01*
X99944Y73365D02*
X100944D01*
X100444Y72865D02*
Y73865D01*
X8444Y69902D02*
X9444D01*
X8944Y69402D02*
Y70402D01*
X268944Y63365D02*
X269944D01*
X269444Y62865D02*
Y63865D01*
X126944Y73365D02*
X127944D01*
X127444Y72865D02*
Y73865D01*
X7444Y125865D02*
X8444D01*
X7944Y125365D02*
Y126365D01*
X-5556Y122365D02*
X-4556D01*
X-5056Y121865D02*
Y122865D01*
X118444Y95365D02*
X119444D01*
X118944Y94865D02*
Y95865D01*
X250538Y86459D02*
X251538D01*
X251038Y85959D02*
Y86959D01*
X269944Y108379D02*
X270944D01*
X270444Y107879D02*
Y108879D01*
X216944Y106275D02*
X217944D01*
X217444Y105775D02*
Y106775D01*
X237944Y106275D02*
X238944D01*
X238444Y105775D02*
Y106775D01*
X220944Y109365D02*
X221944D01*
X221444Y108865D02*
Y109865D01*
X59444Y105865D02*
X60444D01*
X59944Y105365D02*
Y106365D01*
X97444Y104365D02*
X98444D01*
X97944Y103865D02*
Y104865D01*
X148944Y104365D02*
X149944D01*
X149444Y103865D02*
Y104865D01*
X176294Y104365D02*
X177294D01*
X176794Y103865D02*
Y104865D01*
X204294Y87015D02*
X205294D01*
X204794Y86515D02*
Y87515D01*
X78944Y93865D02*
X79944D01*
X79444Y93365D02*
Y94365D01*
X33944Y112365D02*
X34944D01*
X34444Y111865D02*
Y112865D01*
X226857Y116034D02*
X227857D01*
X227357Y115534D02*
Y116534D01*
X148815Y115993D02*
X149815D01*
X149315Y115494D02*
Y116493D01*
X-9772Y115993D02*
X-8772D01*
X-9272Y115494D02*
Y116493D01*
X325593Y358865D02*
X326593D01*
X326093Y358365D02*
Y359365D01*
X301334Y191365D02*
X302334D01*
X301834Y190865D02*
Y191865D01*
X289944Y191365D02*
X290944D01*
X290444Y190865D02*
Y191865D01*
X325944Y210865D02*
X326944D01*
X326444Y210365D02*
Y211365D01*
X380897Y209865D02*
X381897D01*
X381397Y209365D02*
Y210365D01*
X360444Y188365D02*
X361444D01*
X360944Y187865D02*
Y188865D01*
X314944Y326365D02*
X315944D01*
X315444Y325865D02*
Y326865D01*
X327944Y286865D02*
X328944D01*
X328444Y286365D02*
Y287365D01*
X322444Y267365D02*
X323444D01*
X322944Y266865D02*
Y267865D01*
X384444Y391365D02*
X385444D01*
X384944Y390865D02*
Y391865D01*
X289444Y369365D02*
X290444D01*
X289944Y368865D02*
Y369865D01*
X317962Y391265D02*
X318962D01*
X318462Y390765D02*
Y391765D01*
X349032Y220865D02*
X350032D01*
X349532Y220365D02*
Y221365D01*
X368844Y214365D02*
X369844D01*
X369344Y213865D02*
Y214865D01*
X375008Y338365D02*
X376008D01*
X375508Y337865D02*
Y338865D01*
X281444Y364865D02*
X282444D01*
X281944Y364365D02*
Y365365D01*
X354444Y307865D02*
X355444D01*
X354944Y307365D02*
Y308365D01*
X298944Y403206D02*
X299944D01*
X299444Y402706D02*
Y403707D01*
X357233Y312865D02*
X358233D01*
X357733Y312365D02*
Y313365D01*
X361205Y311365D02*
X362205D01*
X361705Y310865D02*
Y311865D01*
X329444Y280365D02*
X330444D01*
X329944Y279865D02*
Y280865D01*
X329491Y275865D02*
X330491D01*
X329991Y275365D02*
Y276365D01*
X307594Y213515D02*
X308594D01*
X308094Y213015D02*
Y214015D01*
X367610Y398199D02*
X368610D01*
X368110Y397699D02*
Y398699D01*
X-9656Y143865D02*
X-8656D01*
X-9156Y143365D02*
Y144365D01*
X-46056Y147638D02*
X-45056D01*
X-45556Y147138D02*
Y148138D01*
X-64056Y395870D02*
X-63056D01*
X-63556Y395370D02*
Y396370D01*
X7444Y403545D02*
X8444D01*
X7944Y403045D02*
Y404045D01*
X-39056Y189865D02*
X-38056D01*
X-38556Y189365D02*
Y190365D01*
X25849Y416865D02*
X26849D01*
X26349Y416365D02*
Y417365D01*
X-5056Y403545D02*
X-4056D01*
X-4556Y403045D02*
Y404045D01*
X-9772Y379865D02*
X-8772D01*
X-9272Y379365D02*
Y380365D01*
X-32020Y359865D02*
X-31020D01*
X-31520Y359365D02*
Y360365D01*
X212444Y425913D02*
X213444D01*
X212944Y425413D02*
Y426413D01*
X146944Y425865D02*
X147944D01*
X147444Y425365D02*
Y426365D01*
M02*
