G04*
G04 #@! TF.GenerationSoftware,Altium Limited,Altium Designer,18.1.8 (232)*
G04*
G04 Layer_Color=16711935*
%FSLAX25Y25*%
%MOIN*%
G70*
G01*
G75*
%ADD10C,0.01000*%
%ADD105C,0.00394*%
%ADD106C,0.00039*%
D10*
X275737Y29679D02*
G03*
X393701Y175365I-39370J152480D01*
G01*
X-118110Y177165D02*
G03*
X0Y24686I157480J0D01*
G01*
X344488Y88583D02*
G03*
X344488Y88583I-19685J0D01*
G01*
X365158Y433071D02*
G03*
X365158Y433071I-10827J0D01*
G01*
X393701Y374016D02*
G03*
X236221Y531496I-157480J0D01*
G01*
X344488Y462598D02*
G03*
X344488Y462598I-19685J0D01*
G01*
X365158Y118110D02*
G03*
X365158Y118110I-10827J0D01*
G01*
X-67913D02*
G03*
X-67913Y118110I-10827J0D01*
G01*
X39370Y531496D02*
G03*
X-118110Y374016I0J-157480D01*
G01*
X-67913Y433071D02*
G03*
X-67913Y433071I-10827J0D01*
G01*
X-29528Y462598D02*
G03*
X-29528Y462598I-19685J0D01*
G01*
Y88583D02*
G03*
X-29528Y88583I-19685J0D01*
G01*
X29528Y403543D02*
G03*
X9843Y383858I0J-19685D01*
G01*
X265748D02*
G03*
X246063Y403543I-19685J0D01*
G01*
Y147638D02*
G03*
X265748Y167323I0J19685D01*
G01*
X9843D02*
G03*
X29528Y147638I19685J0D01*
G01*
X0Y0D02*
X275590D01*
X0D02*
Y24686D01*
X275590Y0D02*
Y29679D01*
X393701Y175365D02*
X393701Y374016D01*
X-118110Y177165D02*
Y374016D01*
X39370Y531496D02*
X78740D01*
X196850D02*
X236221D01*
X196850D02*
Y551181D01*
X78740Y531496D02*
Y551181D01*
X196850D01*
X9843Y167323D02*
Y383858D01*
X29528Y403543D02*
X246063D01*
X265748Y167323D02*
Y383858D01*
X29528Y147638D02*
X246063D01*
D105*
X278594Y97640D02*
G03*
X278594Y97640I-1000J0D01*
G01*
X-7165Y99459D02*
G03*
X-7165Y99459I-1000J0D01*
G01*
X380538Y233715D02*
G03*
X380538Y233715I-1000J0D01*
G01*
X182487Y77762D02*
Y89967D01*
X175400Y77762D02*
Y89967D01*
X182487D01*
X175400Y77762D02*
X182487D01*
X204341Y80822D02*
X216546D01*
X204341Y87908D02*
X216546D01*
Y80822D02*
Y87908D01*
X204341Y80822D02*
Y87908D01*
X-12615Y129017D02*
X-7497D01*
X-12615Y140828D02*
X-7497D01*
X-12615Y129017D02*
Y140828D01*
X-7497Y129017D02*
Y140828D01*
X275595Y87829D02*
Y99640D01*
X281894Y87829D02*
Y99640D01*
X275595D02*
X281894D01*
X275595Y87829D02*
X281894D01*
X-12466Y109270D02*
X-6166D01*
X-12466Y97459D02*
X-6166D01*
X-12466D02*
Y109270D01*
X-6166Y97459D02*
Y109270D01*
X310349Y145920D02*
Y151038D01*
X298538Y145920D02*
Y151038D01*
Y145920D02*
X310349D01*
X298538Y151038D02*
X310349D01*
X389349Y231716D02*
Y238015D01*
X377538Y231716D02*
Y238015D01*
X389349D01*
X377538Y231716D02*
X389349D01*
X193755Y457648D02*
X220133D01*
X193755Y443081D02*
X220133D01*
X193755D02*
Y457648D01*
X220133Y443081D02*
Y457648D01*
X-73497Y402959D02*
Y414770D01*
X-78615Y402959D02*
Y414770D01*
X-73497D01*
X-78615Y402959D02*
X-73497D01*
D106*
X184084Y65215D02*
Y71514D01*
Y65215D02*
X187234D01*
Y71514D01*
X184084D02*
X187234D01*
X210794Y84765D02*
Y87914D01*
Y84765D02*
X217093D01*
Y87914D01*
X210794D02*
X217093D01*
X256294Y33765D02*
Y36914D01*
Y33765D02*
X262593D01*
Y36914D01*
X256294D02*
X262593D01*
X175394Y74215D02*
X178544D01*
Y80514D01*
X175394D02*
X178544D01*
X175394Y74215D02*
Y80514D01*
X-12706Y77315D02*
X-6407D01*
X-12706D02*
Y80465D01*
X-6407D01*
Y77315D02*
Y80465D01*
X112294Y71765D02*
Y74914D01*
Y71765D02*
X118593D01*
Y74914D01*
X112294D02*
X118593D01*
X63294Y85165D02*
Y88314D01*
Y85165D02*
X69593D01*
Y88314D01*
X63294D02*
X69593D01*
X19794Y33265D02*
Y36414D01*
Y33265D02*
X26093D01*
Y36414D01*
X19794D02*
X26093D01*
X160294Y82315D02*
X166593D01*
Y85465D01*
X160294D02*
X166593D01*
X160294Y82315D02*
Y85465D01*
X210794Y104052D02*
X217093D01*
X210794Y100902D02*
Y104052D01*
Y100902D02*
X217093D01*
Y104052D01*
X275094Y129084D02*
X281393D01*
Y125934D02*
Y129084D01*
X275094Y125934D02*
X281393D01*
X275094D02*
Y129084D01*
Y119583D02*
X281393D01*
Y116434D02*
Y119583D01*
X275094Y116434D02*
X281393D01*
X275094D02*
Y119583D01*
Y107016D02*
X281393D01*
X275094D02*
Y110166D01*
X281393D01*
Y107016D02*
Y110166D01*
X254294Y110482D02*
Y113632D01*
Y110482D02*
X260593D01*
Y113632D01*
X254294D02*
X260593D01*
X-12706Y84315D02*
X-6407D01*
X-12706D02*
Y87465D01*
X-6407D01*
Y84315D02*
Y87465D01*
X-12706Y94099D02*
X-6407D01*
Y90949D02*
Y94099D01*
X-12706Y90949D02*
X-6407D01*
X-12706D02*
Y94099D01*
X20294Y110765D02*
Y113914D01*
Y110765D02*
X26593D01*
Y113914D01*
X20294D02*
X26593D01*
X323937Y169914D02*
X330237D01*
X323937Y166765D02*
Y169914D01*
Y166765D02*
X330237D01*
Y169914D01*
X352594Y392414D02*
X358893D01*
X352594Y389265D02*
Y392414D01*
Y389265D02*
X358893D01*
Y392414D01*
X325687Y389815D02*
X331986D01*
Y392965D01*
X325687D02*
X331986D01*
X325687Y389815D02*
Y392965D01*
X368144Y392914D02*
X374443D01*
X368144Y389765D02*
Y392914D01*
Y389765D02*
X374443D01*
Y392914D01*
X295143Y359215D02*
X298293D01*
X295143D02*
Y365514D01*
X298293D01*
Y359215D02*
Y365514D01*
X303643Y359215D02*
X306793D01*
X303643D02*
Y365514D01*
X306793D01*
Y359215D02*
Y365514D01*
X312143Y359215D02*
X315293D01*
X312143D02*
Y365514D01*
X315293D01*
Y359215D02*
Y365514D01*
X321143Y359215D02*
X324293D01*
X321143D02*
Y365514D01*
X324293D01*
Y359215D02*
Y365514D01*
X348394Y231215D02*
Y237514D01*
X351544D01*
Y231215D02*
Y237514D01*
X348394Y231215D02*
X351544D01*
X357894D02*
Y237514D01*
X361044D01*
Y231215D02*
Y237514D01*
X357894Y231215D02*
X361044D01*
X367844Y237514D02*
X370993D01*
X367844Y231215D02*
Y237514D01*
Y231215D02*
X370993D01*
Y237514D01*
X292093Y404315D02*
Y407465D01*
X285794D02*
X292093D01*
X285794Y404315D02*
Y407465D01*
Y404315D02*
X292093D01*
X315794Y337265D02*
Y340414D01*
Y337265D02*
X322093D01*
Y340414D01*
X315794D02*
X322093D01*
X329640Y310815D02*
Y313965D01*
X323341D02*
X329640D01*
X323341Y310815D02*
Y313965D01*
Y310815D02*
X329640D01*
X328294Y238265D02*
Y241414D01*
Y238265D02*
X334593D01*
Y241414D01*
X328294D02*
X334593D01*
X314794Y189265D02*
Y192414D01*
Y189265D02*
X321093D01*
Y192414D01*
X314794D02*
X321093D01*
X301344Y161747D02*
X304493D01*
X301344Y155448D02*
Y161747D01*
Y155448D02*
X304493D01*
Y161747D01*
X366794Y164765D02*
Y167914D01*
Y164765D02*
X373093D01*
Y167914D01*
X366794D02*
X373093D01*
X255593Y438675D02*
Y441825D01*
X249294D02*
X255593D01*
X249294Y438675D02*
Y441825D01*
Y438675D02*
X255593D01*
X-15706Y145665D02*
Y148814D01*
Y145665D02*
X-9407D01*
Y148814D01*
X-15706D02*
X-9407D01*
X212093Y462362D02*
Y465512D01*
X205794D02*
X212093D01*
X205794Y462362D02*
Y465512D01*
Y462362D02*
X212093D01*
X163593Y475815D02*
Y478965D01*
X157294D02*
X163593D01*
X157294Y475815D02*
Y478965D01*
Y475815D02*
X163593D01*
X113593Y476315D02*
Y479465D01*
X107294D02*
X113593D01*
X107294Y476315D02*
Y479465D01*
Y476315D02*
X113593D01*
X64593Y463315D02*
Y466465D01*
X58294D02*
X64593D01*
X58294Y463315D02*
Y466465D01*
Y463315D02*
X64593D01*
X21593Y436815D02*
Y439965D01*
X15294D02*
X21593D01*
X15294Y436815D02*
Y439965D01*
Y436815D02*
X21593D01*
X-11907Y401994D02*
Y405143D01*
X-18206D02*
X-11907D01*
X-18206Y401994D02*
Y405143D01*
Y401994D02*
X-11907D01*
X-39907Y358315D02*
Y361465D01*
X-46206D02*
X-39907D01*
X-46206Y358315D02*
Y361465D01*
Y358315D02*
X-39907D01*
X-52907Y309815D02*
Y312965D01*
X-59206D02*
X-52907D01*
X-59206Y309815D02*
Y312965D01*
Y309815D02*
X-52907D01*
Y259315D02*
Y262465D01*
X-59206D02*
X-52907D01*
X-59206Y259315D02*
Y262465D01*
Y259315D02*
X-52907D01*
X-39907Y211315D02*
Y214465D01*
X-46206D02*
X-39907D01*
X-46206Y211315D02*
Y214465D01*
Y211315D02*
X-39907D01*
X199794Y508914D02*
X206093D01*
X199794Y505765D02*
Y508914D01*
Y505765D02*
X206093D01*
Y508914D01*
X197294Y418815D02*
X203593D01*
Y421965D01*
X197294D02*
X203593D01*
X197294Y418815D02*
Y421965D01*
X-81631Y140715D02*
Y147014D01*
Y140715D02*
X-78481D01*
Y147014D01*
X-81631D02*
X-78481D01*
M02*
