M48
;Layer_Color=9474304
;FILE_FORMAT=2:5
INCH,LZ
;TYPE=PLATED
T1F00S00C0.01000
T2F00S00C0.02800
T3F00S00C0.03150
T5F00S00C0.03543
T6F00S00C0.03600
T7F00S00C0.03937
%
T01
X0343898Y01595
X0353365Y017349
X0347444Y0184865
X0360944Y0188365
X0301834Y0191365
X0290444
X0323937Y0142611
X0326976Y0131198
X0295444Y0096865
X02845Y00845
X0251038Y0086459
X0252444Y0106365
X0238444Y0106275
X0221444Y0109365
X0217444Y0106275
X0226Y011672
X0270444Y0108379
X0262944Y0064778
X0177Y0105865
X0149444
X0148588Y011672
X0118944Y0095365
X0098Y0105865
X0100444Y0073365
X0065444Y0073865
X0059944Y0105865
X0007944Y0125865
X-0005056Y0122365
X-0009556Y011672
X0008944Y0069902
X-0060956Y0132166
X-0045556Y0147638
X-0038556Y0189865
X-0085644Y0184077
X0308094Y0213515
Y0232865
X0326444Y0210865
X0322944Y0267365
X0329991Y0275865
X0329944Y0280365
X0328444Y0286865
X0327Y03205
X0315444Y0326365
X0357733Y0312865
X0361705Y0311365
X0354944Y0307865
X0375508Y0338365
X0369344Y0214365
X0381397Y0209865
X0349532Y0220865
X036811Y0398199
X0384944Y0391365
X0318462Y0391265
X0299444Y0403206
X0289944Y0369365
X0281944Y0364865
X0326093Y0358865
X0212944Y0425913
X0147444Y0425865
X0026349Y0416865
X0007944Y0403545
X-0004556
X-0009272Y0379865
X-003152Y0359865
X-0053631Y0373365
X-0063556Y039587
T02
X0026944Y0030865
X0204Y0087
X0271008Y0061832
X029Y01445
X0127444Y0073365
X0079444Y0093865
X0034444Y0112365
X-0009556Y0142611
X0335Y0197
X0347177Y0196865
T03
X0111444Y0020365
X0121522
X0131522
X0141522
X0151522
X0161522
X0320758Y0183365
X0328632
X0161134Y0073286
Y0063443
X0161522Y0050365
X0151522
X0141522
X0131522
X0121522
X0111444
X-0095694Y0139928
Y0147802
X0297507Y0380865
X0305381
X0240365Y0496786
X0230522
X0179444Y0495802
Y0487928
T05
X0282444Y0268365
Y0278365
Y0288365
Y0298365
Y0308365
X0372944Y0304365
Y0294365
Y0284365
Y0274365
X0165833Y0453865
X0152054
X0091444Y0425865
X0081444
X0071444
X0061444
X0051444
X-0089424Y0390783
Y0360861
T06
X0304444Y0124422
Y0134422
X-0029056Y0134922
Y0124922
T07
X0317Y01185
X0327
X0337
X-0041Y0118
X-0051
X-0061
M30
