M48
;Layer_Color=9474304
;FILE_FORMAT=2:5
INCH,LZ
;TYPE=PLATED
T1F00S00C0.01000
T2F00S00C0.02800
T3F00S00C0.03000
T4F00S00C0.03150
T6F00S00C0.03543
T7F00S00C0.03600
%
T01
X00195Y0009
X00385Y001
X00655Y0009
X0351Y00975
X0348917Y0144124
X0343898Y01595
X0353365Y017349
X0347444Y0184865
X0360944Y0188365
X0377436Y0134422
X0327944Y0131832
X03185Y01325
X0315138Y0137
X0323691Y0142365
X0301834Y0191365
X0290444
X0270444Y0108379
X0252444Y0106365
X0238444Y0106275
X0217444
X0226Y011672
X0251038Y0086459
X0261172Y0064778
X0313105Y0058365
X0148588Y011672
X0155Y0123542
X0112294Y0121909
X012Y0138
X00915Y01385
X0087944Y0123605
X0063943Y0123221
X0065Y014
X0065444Y0073865
X0054Y0079715
X00385Y0087165
X0081444Y0079997
X0100444Y0073365
X0097Y00925
X0118944Y0095365
X0066Y0047365
X-0023Y00475
X-00295Y00435
X-002916Y00525
Y0058
X-00359Y0059
X-0043418Y00605
X-0054Y0062
X-0051Y0054865
X-0038296Y005
X-0025Y00625
X-0024331Y0068898
X-0069364Y0071
X-0073Y00865
X-007874Y0098425
X-0067893Y01415
X-0058769Y0154098
X-00515Y0163
X-0031856Y01805
X-0038556Y0189865
X-00775Y01815
X00005Y0166
X0007944Y0125865
X-0005056Y0122365
X-0009556Y011672
X0025865Y01415
X0Y01955
X-00075Y02285
X-0001556Y0244
X-00075Y02555
X0001Y0262
X-0006Y02735
X00045Y0279
X-0001Y0294
Y03095
X-00015Y03285
X-0003Y03445
X-00215Y03335
X-00265Y0323265
X-0013556Y0317665
X-0016Y0291
X-0021Y02645
X-0041256Y02725
X-0043856Y0281165
X-0086Y0278165
X-00905Y02715
X-00945Y02615
X-00905Y0252676
X-00995Y02465
X-0087Y0234
X-0084Y0221
X-0098Y0222
X-0091Y0212865
X-0084153Y0202
X-0075Y02025
X-0059064Y0200865
X-01Y0199412
X-0107Y02085
X-01055Y02675
X-0106Y02845
X-0103Y03045
X-0105Y0316265
X-0097Y0321
X-008Y03195
X-0075956Y03075
X-008Y0299465
X-0081456Y0338365
X-0080756Y03445
X-0072Y03395
X-0102Y0337
X-01085Y033
X027Y0327
X0284055Y0328
X0296849Y0326365
X0315444
X0327Y03205
X0328444Y0286865
X0329944Y0280365
X0329991Y0275865
X0322944Y0267365
X0302942Y02425
X0291Y02445
X02875Y0237265
X0308094Y0232865
Y0213515
X0298Y02115
X02935Y0207113
X0289743Y0203577
X0292Y01975
X0301688Y0204161
X0286749Y02115
X0326444Y0210865
X027Y029
X0354944Y0307865
X0357733Y0312865
X0361705Y0311365
X0375508Y0338365
X03765Y02135
X0381397Y0209865
X0384944Y0391365
X036811Y0398199
X0349779Y0453
X03375Y04355
X03285Y0434
X0313843Y04365
X0299944Y04205
X0290912Y0425365
X0299444Y0403206
X0318462Y0391265
X0326093Y0358865
X0289944Y0369365
X0281944Y0364865
X0273Y0444853
X0257346Y0446
X0243Y0445
X0238444Y0455877
Y0466
X0256718Y0465
Y0475266
X0267Y0476
X02676Y0466447
X0281Y04745
X0282Y0484086
X0276Y049
X02715Y0486
X02615Y04835
X0256445Y0488531
Y0495802
X0266Y04955
X0260641Y0505765
X02745
X0283Y04985
X02985Y04995
X02945Y0487736
X02955Y0473
X02925Y0461
X03275Y0487928
X02435Y043
X0186Y0432
X0187318Y0438
X0182Y0435
X0174444Y0432546
X01375Y0445
X01315Y0452373
X0127444Y0448411
X0121Y04465
X0107Y04455
X0091Y04445
X00785Y0445
X0075Y0470062
X0074Y04785
X0067684Y048
X00865Y04775
Y04675
X00925Y0463865
X0096Y0467
X00955Y0472865
X00945Y04795
X01265Y045927
X00425Y0461186
X00345Y04595
X0037Y0448117
X0045Y0470652
X0031Y0474
X0047Y05005
X0016704Y0498
X00235Y04735
X0027602Y0461589
X0024566Y0453865
X0026349Y0416865
X0007944Y0403545
X-0004556
X-0009272Y0379865
X-00315Y03815
X-00385Y03885
X-0053631Y0373365
X-0063556Y039587
X-00525Y042944
X-0036816Y0425412
X-003Y04435
X-00105Y04645
X-0011033Y04875
X-0011Y05025
X-003152Y0359865
X0023Y05105
X0027602
X00315
X0044082Y051
X0063544Y050918
X00785Y05085
X0256Y0518
X0266Y05155
X02725Y0519
X0288Y0508786
T02
X0026944Y0030865
X0204Y0087
X0271008Y0061832
X0289544Y01465
X0127444Y0073365
X0079444Y0093865
X0034444Y0112365
X-0009556Y0142611
X0335Y0197
X0347177Y0196865
T03
X0215Y0113
X02965Y0097116
X02845Y00845
X0177Y0105865
X0149444
X0098
X0059944
X0008944Y0069902
X-0034Y0116
X0352544Y0219
X0212944Y0425913
X0147444Y0425865
T04
X0111444Y0020365
X0121522
X0131522
X0141522
X0151522
X0161522
X0320758Y0183365
X0328632
X0161134Y0073286
Y0063443
X0161522Y0050365
X0151522
X0141522
X0131522
X0121522
X0111444
X-00945Y0158715
Y0166589
X0297507Y0380865
X0305381
X0240365Y0496786
X0230522
X0179444Y0495802
Y0487928
T06
X0282444Y0268365
Y0278365
Y0288365
Y0298365
Y0308365
X0372944Y0304365
Y0294365
Y0284365
Y0274365
X0165833Y0453865
X0152054
X0091444Y0425865
X0081444
X0071444
X0061444
X0051444
X-0089424Y0390783
Y0360861
T07
X0304444Y0124422
Y0134422
X-0028056Y0134922
Y0124922
M30
