G04*
G04 #@! TF.GenerationSoftware,Altium Limited,Altium Designer,18.1.8 (232)*
G04*
G04 Layer_Color=128*
%FSLAX25Y25*%
%MOIN*%
G70*
G01*
G75*
%ADD10C,0.01000*%
%ADD107C,0.00200*%
D10*
X275737Y29679D02*
G03*
X393701Y175365I-39370J152480D01*
G01*
X-118110Y177165D02*
G03*
X0Y24686I157480J0D01*
G01*
X344488Y88583D02*
G03*
X344488Y88583I-19685J0D01*
G01*
X365158Y433071D02*
G03*
X365158Y433071I-10827J0D01*
G01*
X393701Y374016D02*
G03*
X236221Y531496I-157480J0D01*
G01*
X344488Y462598D02*
G03*
X344488Y462598I-19685J0D01*
G01*
X365158Y118110D02*
G03*
X365158Y118110I-10827J0D01*
G01*
X-67913D02*
G03*
X-67913Y118110I-10827J0D01*
G01*
X39370Y531496D02*
G03*
X-118110Y374016I0J-157480D01*
G01*
X-67913Y433071D02*
G03*
X-67913Y433071I-10827J0D01*
G01*
X-29528Y462598D02*
G03*
X-29528Y462598I-19685J0D01*
G01*
Y88583D02*
G03*
X-29528Y88583I-19685J0D01*
G01*
X29528Y403543D02*
G03*
X9843Y383858I0J-19685D01*
G01*
X265748D02*
G03*
X246063Y403543I-19685J0D01*
G01*
Y147638D02*
G03*
X265748Y167323I0J19685D01*
G01*
X9843D02*
G03*
X29528Y147638I19685J0D01*
G01*
X0Y0D02*
X275590D01*
X0D02*
Y24686D01*
X275590Y0D02*
Y29679D01*
X393701Y175365D02*
X393701Y374016D01*
X-118110Y177165D02*
Y374016D01*
X39370Y531496D02*
X78740D01*
X196850D02*
X236221D01*
X196850D02*
Y551181D01*
X78740Y531496D02*
Y551181D01*
X196850D01*
X9843Y167323D02*
Y383858D01*
X29528Y403543D02*
X246063D01*
X265748Y167323D02*
Y383858D01*
X29528Y147638D02*
X246063D01*
D107*
X109869Y50365D02*
X113018D01*
X111444Y48790D02*
Y51940D01*
X119948Y50365D02*
X123097D01*
X121522Y48790D02*
Y51940D01*
X139947Y50365D02*
X143097D01*
X141522Y48790D02*
Y51940D01*
X159948Y50365D02*
X163097D01*
X161522Y48790D02*
Y51940D01*
X139947Y20365D02*
X143097D01*
X141522Y18790D02*
Y21940D01*
X119948Y20365D02*
X123097D01*
X121522Y18790D02*
Y21940D01*
X149948Y50365D02*
X153097D01*
X151522Y48790D02*
Y51940D01*
X129947Y50365D02*
X133097D01*
X131522Y48790D02*
Y51940D01*
X159948Y20365D02*
X163097D01*
X161522Y18790D02*
Y21940D01*
X149948Y20365D02*
X153097D01*
X151522Y18790D02*
Y21940D01*
X129947Y20365D02*
X133097D01*
X131522Y18790D02*
Y21940D01*
X109869Y20365D02*
X113018D01*
X111444Y18790D02*
Y21940D01*
X159559Y73286D02*
X162709D01*
X161134Y71711D02*
Y74861D01*
X159559Y63443D02*
X162709D01*
X161134Y61869D02*
Y65018D01*
X164062Y453865D02*
X167605D01*
X165833Y452093D02*
Y455636D01*
X150282Y453865D02*
X153825D01*
X152054Y452093D02*
Y455636D01*
X177869Y487928D02*
X181018D01*
X179444Y486353D02*
Y489502D01*
X177869Y495802D02*
X181018D01*
X179444Y494227D02*
Y497377D01*
X361962Y148479D02*
X369836D01*
X365899Y144542D02*
Y152416D01*
X361805Y205566D02*
X369679D01*
X365742Y201629D02*
Y209503D01*
X280507Y46874D02*
X288381D01*
X284444Y42937D02*
Y50811D01*
X223420Y46717D02*
X231294D01*
X227357Y42780D02*
Y50654D01*
X44007Y46874D02*
X51881D01*
X47944Y42937D02*
Y50811D01*
X-13080Y46717D02*
X-5206D01*
X-9143Y42780D02*
Y50654D01*
X302644Y134422D02*
X306244D01*
X304444Y132622D02*
Y136222D01*
X302644Y124422D02*
X306244D01*
X304444Y122622D02*
Y126222D01*
X-29856Y124922D02*
X-26256D01*
X-28056Y123122D02*
Y126722D01*
X-29856Y134922D02*
X-26256D01*
X-28056Y133122D02*
Y136722D01*
X371172Y274365D02*
X374715D01*
X372944Y272593D02*
Y276136D01*
X371172Y284365D02*
X374715D01*
X372944Y282593D02*
Y286136D01*
X371172Y294365D02*
X374715D01*
X372944Y292593D02*
Y296136D01*
X371172Y304365D02*
X374715D01*
X372944Y302593D02*
Y306136D01*
X280672Y268365D02*
X284215D01*
X282444Y266593D02*
Y270136D01*
X280672Y278365D02*
X284215D01*
X282444Y276593D02*
Y280136D01*
X280672Y288365D02*
X284215D01*
X282444Y286593D02*
Y290136D01*
X280672Y298365D02*
X284215D01*
X282444Y296593D02*
Y300136D01*
X280672Y308365D02*
X284215D01*
X282444Y306593D02*
Y310136D01*
X319183Y183365D02*
X322333D01*
X320758Y181790D02*
Y184940D01*
X327057Y183365D02*
X330207D01*
X328632Y181790D02*
Y184940D01*
X295932Y380865D02*
X299081D01*
X297507Y379290D02*
Y382440D01*
X303806Y380865D02*
X306956D01*
X305381Y379290D02*
Y382440D01*
X-91196Y390783D02*
X-87653D01*
X-89424Y389011D02*
Y392554D01*
X-91196Y360861D02*
X-87653D01*
X-89424Y359090D02*
Y362633D01*
X228948Y496786D02*
X232097D01*
X230522Y495211D02*
Y498361D01*
X238790Y496786D02*
X241940D01*
X240365Y495211D02*
Y498361D01*
X-96075Y158715D02*
X-92925D01*
X-94500Y157141D02*
Y160290D01*
X-96075Y166589D02*
X-92925D01*
X-94500Y165015D02*
Y168164D01*
X89672Y425865D02*
X93215D01*
X91444Y424093D02*
Y427636D01*
X79672Y425865D02*
X83215D01*
X81444Y424093D02*
Y427636D01*
X69672Y425865D02*
X73215D01*
X71444Y424093D02*
Y427636D01*
X59672Y425865D02*
X63215D01*
X61444Y424093D02*
Y427636D01*
X49672Y425865D02*
X53215D01*
X51444Y424093D02*
Y427636D01*
X154873Y527495D02*
X158022D01*
X156448Y525920D02*
Y529070D01*
X136369Y541274D02*
X139518D01*
X137944Y539699D02*
Y542849D01*
X136369Y516865D02*
X139518D01*
X137944Y515290D02*
Y518440D01*
X-75500Y202500D02*
X-74500D01*
X-75000Y202000D02*
Y203000D01*
X-100500Y199412D02*
X-99500D01*
X-100000Y198912D02*
Y199912D01*
X-107500Y208500D02*
X-106500D01*
X-107000Y208000D02*
Y209000D01*
X-91500Y212865D02*
X-90500D01*
X-91000Y212365D02*
Y213365D01*
X-84500Y221000D02*
X-83500D01*
X-84000Y220500D02*
Y221500D01*
X-87500Y234000D02*
X-86500D01*
X-87000Y233500D02*
Y234500D01*
X-95000Y261500D02*
X-94000D01*
X-94500Y261000D02*
Y262000D01*
X-91000Y271500D02*
X-90000D01*
X-90500Y271000D02*
Y272000D01*
X-86500Y278165D02*
X-85500D01*
X-86000Y277665D02*
Y278665D01*
X-59564Y200865D02*
X-58564D01*
X-59064Y200365D02*
Y201365D01*
X-106500Y284500D02*
X-105500D01*
X-106000Y284000D02*
Y285000D01*
X-105500Y316265D02*
X-104500D01*
X-105000Y315765D02*
Y316765D01*
X-97500Y321000D02*
X-96500D01*
X-97000Y320500D02*
Y321500D01*
X-102500Y337000D02*
X-101500D01*
X-102000Y336500D02*
Y337500D01*
X-109000Y330000D02*
X-108000D01*
X-108500Y329500D02*
Y330500D01*
X-80500Y299465D02*
X-79500D01*
X-80000Y298965D02*
Y299965D01*
X-76456Y307500D02*
X-75456D01*
X-75956Y307000D02*
Y308000D01*
X-81956Y338365D02*
X-80956D01*
X-81456Y337865D02*
Y338865D01*
X-72500Y339500D02*
X-71500D01*
X-72000Y339000D02*
Y340000D01*
X-81256Y344500D02*
X-80256D01*
X-80756Y344000D02*
Y345000D01*
X-27000Y323265D02*
X-26000D01*
X-26500Y322765D02*
Y323765D01*
X-22000Y333500D02*
X-21000D01*
X-21500Y333000D02*
Y334000D01*
X500Y262000D02*
X1500D01*
X1000Y261500D02*
Y262500D01*
X4000Y279000D02*
X5000D01*
X4500Y278500D02*
Y279500D01*
X-21500Y264500D02*
X-20500D01*
X-21000Y264000D02*
Y265000D01*
X-6500Y273500D02*
X-5500D01*
X-6000Y273000D02*
Y274000D01*
X-1500Y294000D02*
X-500D01*
X-1000Y293500D02*
Y294500D01*
X-1500Y309500D02*
X-500D01*
X-1000Y309000D02*
Y310000D01*
X-2000Y328500D02*
X-1000D01*
X-1500Y328000D02*
Y329000D01*
X-3500Y344500D02*
X-2500D01*
X-3000Y344000D02*
Y345000D01*
X19000Y9000D02*
X20000D01*
X19500Y8500D02*
Y9500D01*
X38000Y10000D02*
X39000D01*
X38500Y9500D02*
Y10500D01*
X65000Y9000D02*
X66000D01*
X65500Y8500D02*
Y9500D01*
X87444Y123605D02*
X88444D01*
X87944Y123105D02*
Y124105D01*
X185500Y432000D02*
X186500D01*
X186000Y431500D02*
Y432500D01*
X186818Y438000D02*
X187818D01*
X187318Y437500D02*
Y438500D01*
X181500Y435000D02*
X182500D01*
X182000Y434500D02*
Y435500D01*
X173944Y432546D02*
X174944D01*
X174444Y432046D02*
Y433046D01*
X137000Y445000D02*
X138000D01*
X137500Y444500D02*
Y445500D01*
X126944Y448411D02*
X127944D01*
X127444Y447910D02*
Y448911D01*
X126000Y459270D02*
X127000D01*
X126500Y458770D02*
Y459770D01*
X131000Y452373D02*
X132000D01*
X131500Y451873D02*
Y452873D01*
X120500Y446500D02*
X121500D01*
X121000Y446000D02*
Y447000D01*
X106500Y445500D02*
X107500D01*
X107000Y445000D02*
Y446000D01*
X90500Y444500D02*
X91500D01*
X91000Y444000D02*
Y445000D01*
X78000D02*
X79000D01*
X78500Y444500D02*
Y445500D01*
X95500Y467000D02*
X96500D01*
X96000Y466500D02*
Y467500D01*
X92000Y463865D02*
X93000D01*
X92500Y463365D02*
Y464365D01*
X74500Y470062D02*
X75500D01*
X75000Y469562D02*
Y470562D01*
X86000Y467500D02*
X87000D01*
X86500Y467000D02*
Y468000D01*
X95000Y472865D02*
X96000D01*
X95500Y472365D02*
Y473365D01*
X94000Y479500D02*
X95000D01*
X94500Y479000D02*
Y480000D01*
X86000Y477500D02*
X87000D01*
X86500Y477000D02*
Y478000D01*
X73500Y478500D02*
X74500D01*
X74000Y478000D02*
Y479000D01*
X67184Y480000D02*
X68184D01*
X67684Y479500D02*
Y480500D01*
X36500Y448117D02*
X37500D01*
X37000Y447617D02*
Y448617D01*
X24066Y453865D02*
X25066D01*
X24566Y453365D02*
Y454365D01*
X27102Y461589D02*
X28102D01*
X27602Y461089D02*
Y462089D01*
X34000Y459500D02*
X35000D01*
X34500Y459000D02*
Y460000D01*
X42000Y461186D02*
X43000D01*
X42500Y460686D02*
Y461686D01*
X44500Y470652D02*
X45500D01*
X45000Y470152D02*
Y471152D01*
X30500Y474000D02*
X31500D01*
X31000Y473500D02*
Y474500D01*
X23000Y473500D02*
X24000D01*
X23500Y473000D02*
Y474000D01*
X-73500Y86500D02*
X-72500D01*
X-73000Y86000D02*
Y87000D01*
X-69864Y71000D02*
X-68864D01*
X-69364Y70500D02*
Y71500D01*
X-43918Y60500D02*
X-42917D01*
X-43418Y60000D02*
Y61000D01*
X-54500Y62000D02*
X-53500D01*
X-54000Y61500D02*
Y62500D01*
X-51500Y54865D02*
X-50500D01*
X-51000Y54365D02*
Y55365D01*
X-38796Y50000D02*
X-37796D01*
X-38296Y49500D02*
Y50500D01*
X-30000Y43500D02*
X-29000D01*
X-29500Y43000D02*
Y44000D01*
X-23500Y47500D02*
X-22500D01*
X-23000Y47000D02*
Y48000D01*
X-29660Y52500D02*
X-28660D01*
X-29160Y52000D02*
Y53000D01*
X-29660Y58000D02*
X-28660D01*
X-29160Y57500D02*
Y58500D01*
X-25500Y62500D02*
X-24500D01*
X-25000Y62000D02*
Y63000D01*
X-24832Y68898D02*
X-23832D01*
X-24331Y68398D02*
Y69398D01*
X154500Y123542D02*
X155500D01*
X155000Y123042D02*
Y124042D01*
X38000Y87165D02*
X39000D01*
X38500Y86665D02*
Y87665D01*
X53500Y79715D02*
X54500D01*
X54000Y79215D02*
Y80215D01*
X80944Y79997D02*
X81944D01*
X81444Y79497D02*
Y80497D01*
X96500Y92500D02*
X97500D01*
X97000Y92000D02*
Y93000D01*
X287000Y237265D02*
X288000D01*
X287500Y236765D02*
Y237765D01*
X302442Y242500D02*
X303442D01*
X302942Y242000D02*
Y243000D01*
X327000Y487928D02*
X328000D01*
X327500Y487428D02*
Y488428D01*
X349279Y453000D02*
X350279D01*
X349779Y452500D02*
Y453500D01*
X337000Y435500D02*
X338000D01*
X337500Y435000D02*
Y436000D01*
X328000Y434000D02*
X329000D01*
X328500Y433500D02*
Y434500D01*
X313343Y436500D02*
X314343D01*
X313843Y436000D02*
Y437000D01*
X290412Y425365D02*
X291412D01*
X290912Y424865D02*
Y425865D01*
X299444Y420500D02*
X300444D01*
X299944Y420000D02*
Y421000D01*
X243000Y430000D02*
X244000D01*
X243500Y429500D02*
Y430500D01*
X242500Y445000D02*
X243500D01*
X243000Y444500D02*
Y445500D01*
X237944Y466000D02*
X238944D01*
X238444Y465500D02*
Y466500D01*
X237944Y455877D02*
X238944D01*
X238444Y455377D02*
Y456377D01*
X256845Y446000D02*
X257845D01*
X257346Y445500D02*
Y446500D01*
X272500Y444853D02*
X273500D01*
X273000Y444353D02*
Y445353D01*
X292000Y461000D02*
X293000D01*
X292500Y460500D02*
Y461500D01*
X295000Y473000D02*
X296000D01*
X295500Y472500D02*
Y473500D01*
X294000Y487736D02*
X295000D01*
X294500Y487236D02*
Y488236D01*
X287500Y508786D02*
X288500D01*
X288000Y508286D02*
Y509286D01*
X298000Y499500D02*
X299000D01*
X298500Y499000D02*
Y500000D01*
X265500Y515500D02*
X266500D01*
X266000Y515000D02*
Y516000D01*
X255500Y518000D02*
X256500D01*
X256000Y517500D02*
Y518500D01*
X274000Y505765D02*
X275000D01*
X274500Y505265D02*
Y506265D01*
X255945Y488531D02*
X256945D01*
X256445Y488031D02*
Y489031D01*
X255945Y495802D02*
X256945D01*
X256445Y495302D02*
Y496302D01*
X256219Y475266D02*
X257219D01*
X256718Y474766D02*
Y475766D01*
X260140Y505765D02*
X261140D01*
X260641Y505265D02*
Y506265D01*
X272000Y519000D02*
X273000D01*
X272500Y518500D02*
Y519500D01*
X256219Y465000D02*
X257219D01*
X256718Y464500D02*
Y465500D01*
X267101Y466447D02*
X268101D01*
X267600Y465947D02*
Y466947D01*
X280500Y474500D02*
X281500D01*
X281000Y474000D02*
Y475000D01*
X271000Y486000D02*
X272000D01*
X271500Y485500D02*
Y486500D01*
X275500Y490000D02*
X276500D01*
X276000Y489500D02*
Y490500D01*
X282500Y498500D02*
X283500D01*
X283000Y498000D02*
Y499000D01*
X261000Y483500D02*
X262000D01*
X261500Y483000D02*
Y484000D01*
X265500Y495500D02*
X266500D01*
X266000Y495000D02*
Y496000D01*
X266500Y476000D02*
X267500D01*
X267000Y475500D02*
Y476500D01*
X281500Y484086D02*
X282500D01*
X282000Y483586D02*
Y484586D01*
X269500Y327000D02*
X270500D01*
X270000Y326500D02*
Y327500D01*
X269500Y290000D02*
X270500D01*
X270000Y289500D02*
Y290500D01*
X283555Y328000D02*
X284555D01*
X284055Y327500D02*
Y328500D01*
X296349Y326365D02*
X297349D01*
X296849Y325865D02*
Y326865D01*
X291500Y197500D02*
X292500D01*
X292000Y197000D02*
Y198000D01*
X301188Y204161D02*
X302188D01*
X301688Y203661D02*
Y204661D01*
X289243Y203577D02*
X290243D01*
X289743Y203077D02*
Y204077D01*
X293000Y207113D02*
X294000D01*
X293500Y206613D02*
Y207613D01*
X297500Y211500D02*
X298500D01*
X298000Y211000D02*
Y212000D01*
X286248Y211500D02*
X287248D01*
X286749Y211000D02*
Y212000D01*
X290500Y244500D02*
X291500D01*
X291000Y244000D02*
Y245000D01*
X376936Y134422D02*
X377936D01*
X377436Y133922D02*
Y134922D01*
X350500Y97500D02*
X351500D01*
X351000Y97000D02*
Y98000D01*
X312605Y58365D02*
X313605D01*
X313105Y57865D02*
Y58865D01*
X-79240Y98425D02*
X-78240D01*
X-78740Y97925D02*
Y98925D01*
X-36400Y59000D02*
X-35400D01*
X-35900Y58500D02*
Y59500D01*
X65500Y47365D02*
X66500D01*
X66000Y46865D02*
Y47865D01*
X63443Y123221D02*
X64443D01*
X63943Y122721D02*
Y123721D01*
X111794Y121909D02*
X112794D01*
X112294Y121409D02*
Y122409D01*
X119500Y138000D02*
X120500D01*
X120000Y137500D02*
Y138500D01*
X91000D02*
X92000D01*
X91500Y138000D02*
Y139000D01*
X64500Y140000D02*
X65500D01*
X65000Y139500D02*
Y140500D01*
X25365Y141500D02*
X26365D01*
X25865Y141000D02*
Y142000D01*
X0Y166000D02*
X1000D01*
X500Y165500D02*
Y166500D01*
X-78000Y181500D02*
X-77000D01*
X-77500Y181000D02*
Y182000D01*
X-32356Y180500D02*
X-31356D01*
X-31856Y180000D02*
Y181000D01*
X-100000Y246500D02*
X-99000D01*
X-99500Y246000D02*
Y247000D01*
X-98500Y222000D02*
X-97500D01*
X-98000Y221500D02*
Y222500D01*
X-84654Y202000D02*
X-83653D01*
X-84153Y201500D02*
Y202500D01*
X-500Y195500D02*
X500D01*
X0Y195000D02*
Y196000D01*
X-2056Y244000D02*
X-1056D01*
X-1556Y243500D02*
Y244500D01*
X-8000Y228500D02*
X-7000D01*
X-7500Y228000D02*
Y229000D01*
X-41756Y272500D02*
X-40756D01*
X-41256Y272000D02*
Y273000D01*
X-44356Y281165D02*
X-43356D01*
X-43856Y280665D02*
Y281665D01*
X-8000Y255500D02*
X-7000D01*
X-7500Y255000D02*
Y256000D01*
X-91000Y252676D02*
X-90000D01*
X-90500Y252176D02*
Y253176D01*
X-106000Y267500D02*
X-105000D01*
X-105500Y267000D02*
Y268000D01*
X-103500Y304500D02*
X-102500D01*
X-103000Y304000D02*
Y305000D01*
X-80500Y319500D02*
X-79500D01*
X-80000Y319000D02*
Y320000D01*
X-39000Y388500D02*
X-38000D01*
X-38500Y388000D02*
Y389000D01*
X-32000Y381500D02*
X-31000D01*
X-31500Y381000D02*
Y382000D01*
X-16500Y291000D02*
X-15500D01*
X-16000Y290500D02*
Y291500D01*
X-14056Y317665D02*
X-13056D01*
X-13556Y317165D02*
Y318165D01*
X-53000Y429440D02*
X-52000D01*
X-52500Y428940D02*
Y429940D01*
X-37316Y425412D02*
X-36316D01*
X-36816Y424912D02*
Y425912D01*
X-30500Y443500D02*
X-29500D01*
X-30000Y443000D02*
Y444000D01*
X-11000Y464500D02*
X-10000D01*
X-10500Y464000D02*
Y465000D01*
X-11533Y487500D02*
X-10533D01*
X-11033Y487000D02*
Y488000D01*
X-11500Y502500D02*
X-10500D01*
X-11000Y502000D02*
Y503000D01*
X16204Y498000D02*
X17204D01*
X16704Y497500D02*
Y498500D01*
X46500Y500500D02*
X47500D01*
X47000Y500000D02*
Y501000D01*
X78000Y508500D02*
X79000D01*
X78500Y508000D02*
Y509000D01*
X63044Y509180D02*
X64044D01*
X63544Y508680D02*
Y509680D01*
X43582Y510000D02*
X44581D01*
X44082Y509500D02*
Y510500D01*
X31000D02*
X32000D01*
X31500Y510000D02*
Y511000D01*
X27102Y510500D02*
X28102D01*
X27602Y510000D02*
Y511000D01*
X22500Y510500D02*
X23500D01*
X23000Y510000D02*
Y511000D01*
X348417Y144124D02*
X349417D01*
X348917Y143624D02*
Y144624D01*
X327444Y131832D02*
X328444D01*
X327944Y131332D02*
Y132332D01*
X314637Y137000D02*
X315637D01*
X315138Y136500D02*
Y137500D01*
X318000Y132500D02*
X319000D01*
X318500Y132000D02*
Y133000D01*
X-59269Y154098D02*
X-58269D01*
X-58769Y153598D02*
Y154598D01*
X-68393Y141500D02*
X-67393D01*
X-67893Y141000D02*
Y142000D01*
X288144Y146500D02*
X290944D01*
X289544Y145100D02*
Y147900D01*
X351044Y219000D02*
X354044D01*
X352544Y217500D02*
Y220500D01*
X376000Y213500D02*
X377000D01*
X376500Y213000D02*
Y214000D01*
X323191Y142365D02*
X324191D01*
X323691Y141865D02*
Y142865D01*
X216944Y106275D02*
X217944D01*
X217444Y105775D02*
Y106775D01*
X213500Y113000D02*
X216500D01*
X215000Y111500D02*
Y114500D01*
X295000Y97116D02*
X298000D01*
X296500Y95616D02*
Y98616D01*
X260672Y64778D02*
X261672D01*
X261172Y64278D02*
Y65278D01*
X-35500Y116000D02*
X-32500D01*
X-34000Y114500D02*
Y117500D01*
X-52000Y163000D02*
X-51000D01*
X-51500Y162500D02*
Y163500D01*
X326500Y320500D02*
X327500D01*
X327000Y320000D02*
Y321000D01*
X352865Y173490D02*
X353865D01*
X353365Y172990D02*
Y173990D01*
X343397Y159500D02*
X344397D01*
X343898Y159000D02*
Y160000D01*
X333600Y197000D02*
X336400D01*
X335000Y195600D02*
Y198400D01*
X345777Y196865D02*
X348577D01*
X347177Y195465D02*
Y198265D01*
X269608Y61832D02*
X272408D01*
X271008Y60432D02*
Y63232D01*
X202600Y87000D02*
X205400D01*
X204000Y85600D02*
Y88400D01*
X-10956Y142611D02*
X-8156D01*
X-9556Y141211D02*
Y144011D01*
X283000Y84500D02*
X286000D01*
X284500Y83000D02*
Y86000D01*
X25544Y30865D02*
X28344D01*
X26944Y29465D02*
Y32265D01*
X175500Y105865D02*
X178500D01*
X177000Y104365D02*
Y107365D01*
X147944Y105865D02*
X150944D01*
X149444Y104365D02*
Y107365D01*
X96500Y105865D02*
X99500D01*
X98000Y104365D02*
Y107365D01*
X225500Y116720D02*
X226500D01*
X226000Y116220D02*
Y117220D01*
X148088Y116720D02*
X149088D01*
X148588Y116220D02*
Y117220D01*
X-10056Y116720D02*
X-9056D01*
X-9556Y116220D02*
Y117220D01*
X33044Y112365D02*
X35844D01*
X34444Y110965D02*
Y113765D01*
X251944Y106365D02*
X252944D01*
X252444Y105865D02*
Y106865D01*
X307594Y232865D02*
X308594D01*
X308094Y232365D02*
Y233365D01*
X346944Y184865D02*
X347944D01*
X347444Y184365D02*
Y185365D01*
X-54131Y373365D02*
X-53131D01*
X-53631Y372865D02*
Y373865D01*
X64944Y73865D02*
X65944D01*
X65444Y73365D02*
Y74365D01*
X99944Y73365D02*
X100944D01*
X100444Y72865D02*
Y73865D01*
X7444Y69902D02*
X10444D01*
X8944Y68402D02*
Y71402D01*
X126044Y73365D02*
X128844D01*
X127444Y71965D02*
Y74765D01*
X7444Y125865D02*
X8444D01*
X7944Y125365D02*
Y126365D01*
X-5556Y122365D02*
X-4556D01*
X-5056Y121865D02*
Y122865D01*
X118444Y95365D02*
X119444D01*
X118944Y94865D02*
Y95865D01*
X250538Y86459D02*
X251538D01*
X251038Y85959D02*
Y86959D01*
X269944Y108379D02*
X270944D01*
X270444Y107879D02*
Y108879D01*
X237944Y106275D02*
X238944D01*
X238444Y105775D02*
Y106775D01*
X58444Y105865D02*
X61444D01*
X59944Y104365D02*
Y107365D01*
X78044Y93865D02*
X80844D01*
X79444Y92465D02*
Y95265D01*
X325593Y358865D02*
X326593D01*
X326093Y358365D02*
Y359365D01*
X301334Y191365D02*
X302334D01*
X301834Y190865D02*
Y191865D01*
X289944Y191365D02*
X290944D01*
X290444Y190865D02*
Y191865D01*
X325944Y210865D02*
X326944D01*
X326444Y210365D02*
Y211365D01*
X380897Y209865D02*
X381897D01*
X381397Y209365D02*
Y210365D01*
X360444Y188365D02*
X361444D01*
X360944Y187865D02*
Y188865D01*
X314944Y326365D02*
X315944D01*
X315444Y325865D02*
Y326865D01*
X327944Y286865D02*
X328944D01*
X328444Y286365D02*
Y287365D01*
X322444Y267365D02*
X323444D01*
X322944Y266865D02*
Y267865D01*
X384444Y391365D02*
X385444D01*
X384944Y390865D02*
Y391865D01*
X289444Y369365D02*
X290444D01*
X289944Y368865D02*
Y369865D01*
X317962Y391265D02*
X318962D01*
X318462Y390765D02*
Y391765D01*
X375008Y338365D02*
X376008D01*
X375508Y337865D02*
Y338865D01*
X281444Y364865D02*
X282444D01*
X281944Y364365D02*
Y365365D01*
X354444Y307865D02*
X355444D01*
X354944Y307365D02*
Y308365D01*
X298944Y403206D02*
X299944D01*
X299444Y402706D02*
Y403707D01*
X357233Y312865D02*
X358233D01*
X357733Y312365D02*
Y313365D01*
X361205Y311365D02*
X362205D01*
X361705Y310865D02*
Y311865D01*
X329444Y280365D02*
X330444D01*
X329944Y279865D02*
Y280865D01*
X329491Y275865D02*
X330491D01*
X329991Y275365D02*
Y276365D01*
X307594Y213515D02*
X308594D01*
X308094Y213015D02*
Y214015D01*
X367610Y398199D02*
X368610D01*
X368110Y397699D02*
Y398699D01*
X-64056Y395870D02*
X-63056D01*
X-63556Y395370D02*
Y396370D01*
X7444Y403545D02*
X8444D01*
X7944Y403045D02*
Y404045D01*
X-39056Y189865D02*
X-38056D01*
X-38556Y189365D02*
Y190365D01*
X25849Y416865D02*
X26849D01*
X26349Y416365D02*
Y417365D01*
X-5056Y403545D02*
X-4056D01*
X-4556Y403045D02*
Y404045D01*
X-9772Y379865D02*
X-8772D01*
X-9272Y379365D02*
Y380365D01*
X-32020Y359865D02*
X-31020D01*
X-31520Y359365D02*
Y360365D01*
X211444Y425913D02*
X214444D01*
X212944Y424413D02*
Y427413D01*
X145944Y425865D02*
X148944D01*
X147444Y424365D02*
Y427365D01*
M02*
