G04*
G04 #@! TF.GenerationSoftware,Altium Limited,Altium Designer,18.1.8 (232)*
G04*
G04 Layer_Color=255*
%FSLAX25Y25*%
%MOIN*%
G70*
G01*
G75*
%ADD10C,0.01000*%
%ADD16R,0.03150X0.04000*%
%ADD18R,0.03500X0.03000*%
%ADD19R,0.03000X0.03500*%
%ADD21R,0.04000X0.03150*%
%ADD51C,0.06693*%
%ADD52R,0.06693X0.06693*%
%ADD53R,0.07087X0.07087*%
%ADD54C,0.07087*%
%ADD55C,0.05906*%
%ADD56R,0.05906X0.05906*%
%ADD57R,0.15748X0.11811*%
G04:AMPARAMS|DCode=58|XSize=118.11mil|YSize=157.48mil|CornerRadius=29.53mil|HoleSize=0mil|Usage=FLASHONLY|Rotation=270.000|XOffset=0mil|YOffset=0mil|HoleType=Round|Shape=RoundedRectangle|*
%AMROUNDEDRECTD58*
21,1,0.11811,0.09843,0,0,270.0*
21,1,0.05906,0.15748,0,0,270.0*
1,1,0.05906,-0.04921,-0.02953*
1,1,0.05906,-0.04921,0.02953*
1,1,0.05906,0.04921,0.02953*
1,1,0.05906,0.04921,-0.02953*
%
%ADD58ROUNDEDRECTD58*%
%ADD59R,0.11811X0.15748*%
G04:AMPARAMS|DCode=60|XSize=118.11mil|YSize=157.48mil|CornerRadius=29.53mil|HoleSize=0mil|Usage=FLASHONLY|Rotation=0.000|XOffset=0mil|YOffset=0mil|HoleType=Round|Shape=RoundedRectangle|*
%AMROUNDEDRECTD60*
21,1,0.11811,0.09843,0,0,0.0*
21,1,0.05906,0.15748,0,0,0.0*
1,1,0.05906,0.02953,-0.04921*
1,1,0.05906,-0.02953,-0.04921*
1,1,0.05906,-0.02953,0.04921*
1,1,0.05906,0.02953,0.04921*
%
%ADD60ROUNDEDRECTD60*%
%ADD61C,0.06000*%
%ADD62R,0.06000X0.06000*%
%ADD63R,0.06693X0.06693*%
%ADD64R,0.05906X0.05906*%
%ADD65R,0.07087X0.07087*%
%ADD66R,0.07874X0.15748*%
%ADD67R,0.15748X0.07874*%
G04:AMPARAMS|DCode=70|XSize=23.62mil|YSize=39.37mil|CornerRadius=5.91mil|HoleSize=0mil|Usage=FLASHONLY|Rotation=90.000|XOffset=0mil|YOffset=0mil|HoleType=Round|Shape=RoundedRectangle|*
%AMROUNDEDRECTD70*
21,1,0.02362,0.02756,0,0,90.0*
21,1,0.01181,0.03937,0,0,90.0*
1,1,0.01181,0.01378,0.00591*
1,1,0.01181,0.01378,-0.00591*
1,1,0.01181,-0.01378,-0.00591*
1,1,0.01181,-0.01378,0.00591*
%
%ADD70ROUNDEDRECTD70*%
G04:AMPARAMS|DCode=71|XSize=23.62mil|YSize=39.37mil|CornerRadius=5.91mil|HoleSize=0mil|Usage=FLASHONLY|Rotation=0.000|XOffset=0mil|YOffset=0mil|HoleType=Round|Shape=RoundedRectangle|*
%AMROUNDEDRECTD71*
21,1,0.02362,0.02756,0,0,0.0*
21,1,0.01181,0.03937,0,0,0.0*
1,1,0.01181,0.00591,-0.01378*
1,1,0.01181,-0.00591,-0.01378*
1,1,0.01181,-0.00591,0.01378*
1,1,0.01181,0.00591,0.01378*
%
%ADD71ROUNDEDRECTD71*%
%ADD72O,0.06870X0.02205*%
%ADD73R,0.03937X0.01772*%
%ADD74R,0.19685X0.07874*%
%ADD75R,0.01772X0.03937*%
%ADD76O,0.01181X0.07087*%
%ADD77O,0.07087X0.01181*%
%ADD78R,0.08661X0.06890*%
%ADD79R,0.03937X0.08661*%
%ADD80R,0.13780X0.08661*%
%ADD81R,0.06299X0.13780*%
%ADD82R,0.03937X0.02165*%
%ADD83R,0.05000X0.05000*%
D10*
X275737Y29679D02*
G03*
X393701Y175365I-39370J152480D01*
G01*
X-118110Y177165D02*
G03*
X0Y24686I157480J0D01*
G01*
X344488Y88583D02*
G03*
X344488Y88583I-19685J0D01*
G01*
X365158Y433071D02*
G03*
X365158Y433071I-10827J0D01*
G01*
X393701Y374016D02*
G03*
X236221Y531496I-157480J0D01*
G01*
X344488Y462598D02*
G03*
X344488Y462598I-19685J0D01*
G01*
X365158Y118110D02*
G03*
X365158Y118110I-10827J0D01*
G01*
X-67913D02*
G03*
X-67913Y118110I-10827J0D01*
G01*
X39370Y531496D02*
G03*
X-118110Y374016I0J-157480D01*
G01*
X-67913Y433071D02*
G03*
X-67913Y433071I-10827J0D01*
G01*
X-29528Y462598D02*
G03*
X-29528Y462598I-19685J0D01*
G01*
Y88583D02*
G03*
X-29528Y88583I-19685J0D01*
G01*
X29528Y403543D02*
G03*
X9843Y383858I0J-19685D01*
G01*
X265748D02*
G03*
X246063Y403543I-19685J0D01*
G01*
Y147638D02*
G03*
X265748Y167323I0J19685D01*
G01*
X9843D02*
G03*
X29528Y147638I19685J0D01*
G01*
X0Y0D02*
X275590D01*
X0D02*
Y24686D01*
X275590Y0D02*
Y29679D01*
X393701Y175365D02*
X393701Y374016D01*
X-118110Y177165D02*
Y374016D01*
X39370Y531496D02*
X78740D01*
X196850D02*
X236221D01*
X196850D02*
Y551181D01*
X78740Y531496D02*
Y551181D01*
X196850D01*
X9843Y167323D02*
Y383858D01*
X29528Y403543D02*
X246063D01*
X265748Y167323D02*
Y383858D01*
X29528Y147638D02*
X246063D01*
D16*
X192444Y87165D02*
D03*
Y79865D02*
D03*
X199294Y79715D02*
D03*
Y87015D02*
D03*
X222591Y80215D02*
D03*
Y87515D02*
D03*
X944Y138572D02*
D03*
Y131272D02*
D03*
X7944Y138572D02*
D03*
Y131272D02*
D03*
X296352Y114816D02*
D03*
Y107516D02*
D03*
X-72500Y166302D02*
D03*
Y159002D02*
D03*
X-58871Y166302D02*
D03*
Y159002D02*
D03*
X-65738D02*
D03*
Y166302D02*
D03*
X216444Y491215D02*
D03*
Y498515D02*
D03*
X-62556Y412515D02*
D03*
Y405215D02*
D03*
X-52056Y412515D02*
D03*
Y405215D02*
D03*
D18*
X155000Y87515D02*
D03*
X161900D02*
D03*
X210544Y102502D02*
D03*
X217444D02*
D03*
X323687Y168365D02*
D03*
X330587D02*
D03*
X352344Y390865D02*
D03*
X359244D02*
D03*
X332236Y391365D02*
D03*
X325336D02*
D03*
X367894D02*
D03*
X374794D02*
D03*
X199544Y507365D02*
D03*
X206444D02*
D03*
X203844Y420365D02*
D03*
X196944D02*
D03*
D19*
X185634Y64965D02*
D03*
Y71865D02*
D03*
X296743Y358865D02*
D03*
Y365765D02*
D03*
X305243Y358865D02*
D03*
Y365765D02*
D03*
X313743Y358865D02*
D03*
Y365765D02*
D03*
X322743Y358865D02*
D03*
Y365765D02*
D03*
X-79500Y159427D02*
D03*
Y166328D02*
D03*
D21*
X161294Y95865D02*
D03*
X168594D02*
D03*
X210534Y96116D02*
D03*
X217834D02*
D03*
X184094Y95865D02*
D03*
X176794D02*
D03*
X300794Y159865D02*
D03*
X308094D02*
D03*
Y166678D02*
D03*
X300794D02*
D03*
X331023Y161363D02*
D03*
X323723D02*
D03*
X331023Y154365D02*
D03*
X323723D02*
D03*
X331023Y147365D02*
D03*
X323723D02*
D03*
X375094Y384365D02*
D03*
X367794D02*
D03*
X-29160Y154365D02*
D03*
X-36460D02*
D03*
X237594Y479001D02*
D03*
X230294D02*
D03*
X206594Y483865D02*
D03*
X199294D02*
D03*
X113594Y425865D02*
D03*
X106294D02*
D03*
D51*
X111444Y50365D02*
D03*
X121522D02*
D03*
X141522D02*
D03*
X161522D02*
D03*
X141522Y20365D02*
D03*
X121522D02*
D03*
X151522Y50365D02*
D03*
X131522D02*
D03*
X161522Y20365D02*
D03*
X151522D02*
D03*
X131522D02*
D03*
X111444D02*
D03*
X161134Y73286D02*
D03*
X372944Y284365D02*
D03*
Y294365D02*
D03*
Y304365D02*
D03*
X282444Y278365D02*
D03*
Y288365D02*
D03*
Y298365D02*
D03*
Y308365D02*
D03*
X230522Y496786D02*
D03*
X81444Y425865D02*
D03*
X71444D02*
D03*
X61444D02*
D03*
X51444D02*
D03*
D52*
X161134Y63443D02*
D03*
X91444Y425865D02*
D03*
D53*
X165833Y453865D02*
D03*
D54*
X152054D02*
D03*
X-89424Y390783D02*
D03*
D55*
X179444Y487928D02*
D03*
X320758Y183365D02*
D03*
X297507Y380865D02*
D03*
X-94500Y158715D02*
D03*
D56*
X179444Y495802D02*
D03*
X-94500Y166589D02*
D03*
D57*
X365899Y148479D02*
D03*
D58*
X365742Y205566D02*
D03*
D59*
X284444Y46874D02*
D03*
X47944Y46874D02*
D03*
D60*
X227357Y46717D02*
D03*
X-9143Y46717D02*
D03*
D61*
X304444Y134422D02*
D03*
X-28056Y124922D02*
D03*
D62*
X304444Y124422D02*
D03*
X-28056Y134922D02*
D03*
D63*
X372944Y274365D02*
D03*
X282444Y268365D02*
D03*
X240365Y496786D02*
D03*
D64*
X328632Y183365D02*
D03*
X305381Y380865D02*
D03*
D65*
X-89424Y360861D02*
D03*
D66*
X156448Y527495D02*
D03*
D67*
X137944Y541274D02*
D03*
Y516865D02*
D03*
D70*
X183849Y87605D02*
D03*
Y80125D02*
D03*
X174038Y83865D02*
D03*
D71*
X214184Y79459D02*
D03*
X206703D02*
D03*
X210444Y89270D02*
D03*
D72*
X181135Y17865D02*
D03*
Y22865D02*
D03*
Y27865D02*
D03*
Y32865D02*
D03*
Y37865D02*
D03*
Y42865D02*
D03*
Y47865D02*
D03*
Y52865D02*
D03*
X203753Y17865D02*
D03*
Y22865D02*
D03*
Y27865D02*
D03*
Y32865D02*
D03*
Y37865D02*
D03*
Y42865D02*
D03*
Y47865D02*
D03*
Y52865D02*
D03*
D73*
X-14485Y134922D02*
D03*
X-5556Y131182D02*
D03*
Y138662D02*
D03*
X-71556Y412605D02*
D03*
Y405125D02*
D03*
X-80485Y408865D02*
D03*
D74*
X331158Y410865D02*
D03*
X368560D02*
D03*
D75*
X304444Y144050D02*
D03*
X308184Y152979D02*
D03*
X300704D02*
D03*
D76*
X340016Y360400D02*
D03*
X341985D02*
D03*
X343953D02*
D03*
X345922D02*
D03*
X347890D02*
D03*
X349859D02*
D03*
X351827D02*
D03*
X353796D02*
D03*
X355764D02*
D03*
X357733D02*
D03*
X359701D02*
D03*
X361670D02*
D03*
Y328329D02*
D03*
X359701D02*
D03*
X357733D02*
D03*
X355764D02*
D03*
X353796D02*
D03*
X351827D02*
D03*
X349859D02*
D03*
X347890D02*
D03*
X345922D02*
D03*
X343953D02*
D03*
X341985D02*
D03*
X340016D02*
D03*
D77*
X366879Y355192D02*
D03*
Y353223D02*
D03*
Y351255D02*
D03*
Y349286D02*
D03*
Y347318D02*
D03*
Y345349D02*
D03*
Y343381D02*
D03*
Y341412D02*
D03*
Y339444D02*
D03*
Y337475D02*
D03*
Y335507D02*
D03*
Y333538D02*
D03*
X334808D02*
D03*
Y335507D02*
D03*
Y337475D02*
D03*
Y339444D02*
D03*
Y341412D02*
D03*
Y343381D02*
D03*
Y345349D02*
D03*
Y347318D02*
D03*
Y349286D02*
D03*
Y351255D02*
D03*
Y353223D02*
D03*
Y355192D02*
D03*
D78*
X129389Y495947D02*
D03*
X147499D02*
D03*
D79*
X197889Y462176D02*
D03*
X206944D02*
D03*
X215999D02*
D03*
D80*
X206944Y438554D02*
D03*
D81*
X225168Y519365D02*
D03*
X215719D02*
D03*
D82*
X197431Y492125D02*
D03*
Y495864D02*
D03*
Y499604D02*
D03*
X208456D02*
D03*
Y495864D02*
D03*
Y492125D02*
D03*
D83*
X195944Y428365D02*
D03*
X204944D02*
D03*
X202444Y472865D02*
D03*
X211444D02*
D03*
M02*
