G04*
G04 #@! TF.GenerationSoftware,Altium Limited,Altium Designer,18.1.8 (232)*
G04*
G04 Layer_Color=16711935*
%FSLAX25Y25*%
%MOIN*%
G70*
G01*
G75*
%ADD10C,0.01000*%
%ADD24R,0.03950X0.04800*%
%ADD26R,0.04300X0.03800*%
%ADD27R,0.03800X0.04300*%
%ADD29R,0.04800X0.03950*%
%ADD31C,0.07493*%
%ADD32R,0.07493X0.07493*%
%ADD33R,0.07887X0.07887*%
%ADD34C,0.07887*%
%ADD35C,0.06706*%
%ADD36R,0.06706X0.06706*%
%ADD37R,0.16548X0.12611*%
G04:AMPARAMS|DCode=38|XSize=126.11mil|YSize=165.48mil|CornerRadius=33.53mil|HoleSize=0mil|Usage=FLASHONLY|Rotation=270.000|XOffset=0mil|YOffset=0mil|HoleType=Round|Shape=RoundedRectangle|*
%AMROUNDEDRECTD38*
21,1,0.12611,0.09843,0,0,270.0*
21,1,0.05906,0.16548,0,0,270.0*
1,1,0.06706,-0.04921,-0.02953*
1,1,0.06706,-0.04921,0.02953*
1,1,0.06706,0.04921,0.02953*
1,1,0.06706,0.04921,-0.02953*
%
%ADD38ROUNDEDRECTD38*%
%ADD39R,0.12611X0.16548*%
G04:AMPARAMS|DCode=40|XSize=126.11mil|YSize=165.48mil|CornerRadius=33.53mil|HoleSize=0mil|Usage=FLASHONLY|Rotation=0.000|XOffset=0mil|YOffset=0mil|HoleType=Round|Shape=RoundedRectangle|*
%AMROUNDEDRECTD40*
21,1,0.12611,0.09843,0,0,0.0*
21,1,0.05906,0.16548,0,0,0.0*
1,1,0.06706,0.02953,-0.04921*
1,1,0.06706,-0.02953,-0.04921*
1,1,0.06706,-0.02953,0.04921*
1,1,0.06706,0.02953,0.04921*
%
%ADD40ROUNDEDRECTD40*%
%ADD41C,0.06800*%
%ADD42R,0.06800X0.06800*%
%ADD43R,0.07493X0.07493*%
%ADD44R,0.06706X0.06706*%
%ADD45R,0.07887X0.07887*%
%ADD46R,0.08674X0.16548*%
%ADD47R,0.16548X0.08674*%
%ADD48C,0.02800*%
G04:AMPARAMS|DCode=85|XSize=31.62mil|YSize=47.37mil|CornerRadius=9.91mil|HoleSize=0mil|Usage=FLASHONLY|Rotation=90.000|XOffset=0mil|YOffset=0mil|HoleType=Round|Shape=RoundedRectangle|*
%AMROUNDEDRECTD85*
21,1,0.03162,0.02756,0,0,90.0*
21,1,0.01181,0.04737,0,0,90.0*
1,1,0.01981,0.01378,0.00591*
1,1,0.01981,0.01378,-0.00591*
1,1,0.01981,-0.01378,-0.00591*
1,1,0.01981,-0.01378,0.00591*
%
%ADD85ROUNDEDRECTD85*%
G04:AMPARAMS|DCode=86|XSize=31.62mil|YSize=47.37mil|CornerRadius=9.91mil|HoleSize=0mil|Usage=FLASHONLY|Rotation=0.000|XOffset=0mil|YOffset=0mil|HoleType=Round|Shape=RoundedRectangle|*
%AMROUNDEDRECTD86*
21,1,0.03162,0.02756,0,0,0.0*
21,1,0.01181,0.04737,0,0,0.0*
1,1,0.01981,0.00591,-0.01378*
1,1,0.01981,-0.00591,-0.01378*
1,1,0.01981,-0.00591,0.01378*
1,1,0.01981,0.00591,0.01378*
%
%ADD86ROUNDEDRECTD86*%
%ADD87O,0.07670X0.03005*%
%ADD88R,0.04737X0.02572*%
%ADD89R,0.20485X0.08674*%
%ADD90R,0.02572X0.04737*%
%ADD91O,0.01981X0.07887*%
%ADD92O,0.07887X0.01981*%
%ADD93R,0.09461X0.07690*%
%ADD94R,0.04737X0.09461*%
%ADD95R,0.14580X0.09461*%
%ADD96R,0.07099X0.14580*%
%ADD97R,0.04737X0.02965*%
%ADD98R,0.05800X0.05800*%
D10*
X275737Y29679D02*
G03*
X393701Y175365I-39370J152480D01*
G01*
X-118110Y177165D02*
G03*
X0Y24686I157480J0D01*
G01*
X344488Y88583D02*
G03*
X344488Y88583I-19685J0D01*
G01*
X365158Y433071D02*
G03*
X365158Y433071I-10827J0D01*
G01*
X393701Y374016D02*
G03*
X236221Y531496I-157480J0D01*
G01*
X344488Y462598D02*
G03*
X344488Y462598I-19685J0D01*
G01*
X365158Y118110D02*
G03*
X365158Y118110I-10827J0D01*
G01*
X-67913D02*
G03*
X-67913Y118110I-10827J0D01*
G01*
X39370Y531496D02*
G03*
X-118110Y374016I0J-157480D01*
G01*
X-67913Y433071D02*
G03*
X-67913Y433071I-10827J0D01*
G01*
X-29528Y462598D02*
G03*
X-29528Y462598I-19685J0D01*
G01*
Y88583D02*
G03*
X-29528Y88583I-19685J0D01*
G01*
X29528Y403543D02*
G03*
X9843Y383858I0J-19685D01*
G01*
X265748D02*
G03*
X246063Y403543I-19685J0D01*
G01*
Y147638D02*
G03*
X265748Y167323I0J19685D01*
G01*
X9843D02*
G03*
X29528Y147638I19685J0D01*
G01*
X0Y0D02*
X275590D01*
X0D02*
Y24686D01*
X275590Y0D02*
Y29679D01*
X393701Y175365D02*
X393701Y374016D01*
X-118110Y177165D02*
Y374016D01*
X39370Y531496D02*
X78740D01*
X196850D02*
X236221D01*
X196850D02*
Y551181D01*
X78740Y531496D02*
Y551181D01*
X196850D01*
X9843Y167323D02*
Y383858D01*
X29528Y403543D02*
X246063D01*
X265748Y167323D02*
Y383858D01*
X29528Y147638D02*
X246063D01*
D24*
X192444Y87165D02*
D03*
Y79865D02*
D03*
X199294Y79715D02*
D03*
Y87015D02*
D03*
X222591Y80215D02*
D03*
Y87515D02*
D03*
X944Y138572D02*
D03*
Y131272D02*
D03*
X7944Y138572D02*
D03*
Y131272D02*
D03*
X296352Y114816D02*
D03*
Y107516D02*
D03*
X-72500Y166302D02*
D03*
Y159002D02*
D03*
X-58871Y166302D02*
D03*
Y159002D02*
D03*
X-65738D02*
D03*
Y166302D02*
D03*
X216444Y491215D02*
D03*
Y498515D02*
D03*
X-62556Y412515D02*
D03*
Y405215D02*
D03*
X-52056Y412515D02*
D03*
Y405215D02*
D03*
D26*
X155000Y87515D02*
D03*
X161900D02*
D03*
X210544Y102502D02*
D03*
X217444D02*
D03*
X323687Y168365D02*
D03*
X330587D02*
D03*
X352344Y390865D02*
D03*
X359244D02*
D03*
X332236Y391365D02*
D03*
X325336D02*
D03*
X367894D02*
D03*
X374794D02*
D03*
X199544Y507365D02*
D03*
X206444D02*
D03*
X203844Y420365D02*
D03*
X196944D02*
D03*
D27*
X185634Y64965D02*
D03*
Y71865D02*
D03*
X296743Y358865D02*
D03*
Y365765D02*
D03*
X305243Y358865D02*
D03*
Y365765D02*
D03*
X313743Y358865D02*
D03*
Y365765D02*
D03*
X322743Y358865D02*
D03*
Y365765D02*
D03*
X-79500Y159427D02*
D03*
Y166328D02*
D03*
D29*
X161294Y95865D02*
D03*
X168594D02*
D03*
X210534Y96116D02*
D03*
X217834D02*
D03*
X184094Y95865D02*
D03*
X176794D02*
D03*
X300794Y159865D02*
D03*
X308094D02*
D03*
Y166678D02*
D03*
X300794D02*
D03*
X331023Y161363D02*
D03*
X323723D02*
D03*
X331023Y154365D02*
D03*
X323723D02*
D03*
X331023Y147365D02*
D03*
X323723D02*
D03*
X375094Y384365D02*
D03*
X367794D02*
D03*
X-29160Y154365D02*
D03*
X-36460D02*
D03*
X237594Y479001D02*
D03*
X230294D02*
D03*
X206594Y483865D02*
D03*
X199294D02*
D03*
X113594Y425865D02*
D03*
X106294D02*
D03*
D31*
X111444Y50365D02*
D03*
X121522D02*
D03*
X141522D02*
D03*
X161522D02*
D03*
X141522Y20365D02*
D03*
X121522D02*
D03*
X151522Y50365D02*
D03*
X131522D02*
D03*
X161522Y20365D02*
D03*
X151522D02*
D03*
X131522D02*
D03*
X111444D02*
D03*
X161134Y73286D02*
D03*
X372944Y284365D02*
D03*
Y294365D02*
D03*
Y304365D02*
D03*
X282444Y278365D02*
D03*
Y288365D02*
D03*
Y298365D02*
D03*
Y308365D02*
D03*
X230522Y496786D02*
D03*
X81444Y425865D02*
D03*
X71444D02*
D03*
X61444D02*
D03*
X51444D02*
D03*
D32*
X161134Y63443D02*
D03*
X91444Y425865D02*
D03*
D33*
X165833Y453865D02*
D03*
D34*
X152054D02*
D03*
X-89424Y390783D02*
D03*
D35*
X179444Y487928D02*
D03*
X320758Y183365D02*
D03*
X297507Y380865D02*
D03*
X-94500Y158715D02*
D03*
D36*
X179444Y495802D02*
D03*
X-94500Y166589D02*
D03*
D37*
X365899Y148479D02*
D03*
D38*
X365742Y205566D02*
D03*
D39*
X284444Y46874D02*
D03*
X47944Y46874D02*
D03*
D40*
X227357Y46717D02*
D03*
X-9143Y46717D02*
D03*
D41*
X304444Y134422D02*
D03*
X-28056Y124922D02*
D03*
D42*
X304444Y124422D02*
D03*
X-28056Y134922D02*
D03*
D43*
X372944Y274365D02*
D03*
X282444Y268365D02*
D03*
X240365Y496786D02*
D03*
D44*
X328632Y183365D02*
D03*
X305381Y380865D02*
D03*
D45*
X-89424Y360861D02*
D03*
D46*
X156448Y527495D02*
D03*
D47*
X137944Y541274D02*
D03*
Y516865D02*
D03*
D48*
X-75000Y202500D02*
D03*
X-100000Y199412D02*
D03*
X-107000Y208500D02*
D03*
X-91000Y212865D02*
D03*
X-84000Y221000D02*
D03*
X-87000Y234000D02*
D03*
X-94500Y261500D02*
D03*
X-90500Y271500D02*
D03*
X-86000Y278165D02*
D03*
X-59064Y200865D02*
D03*
X-106000Y284500D02*
D03*
X-105000Y316265D02*
D03*
X-97000Y321000D02*
D03*
X-102000Y337000D02*
D03*
X-108500Y330000D02*
D03*
X-80000Y299465D02*
D03*
X-75956Y307500D02*
D03*
X-81456Y338365D02*
D03*
X-72000Y339500D02*
D03*
X-80756Y344500D02*
D03*
X-26500Y323265D02*
D03*
X-21500Y333500D02*
D03*
X1000Y262000D02*
D03*
X4500Y279000D02*
D03*
X-21000Y264500D02*
D03*
X-6000Y273500D02*
D03*
X-1000Y294000D02*
D03*
Y309500D02*
D03*
X-1500Y328500D02*
D03*
X-3000Y344500D02*
D03*
X19500Y9000D02*
D03*
X38500Y10000D02*
D03*
X65500Y9000D02*
D03*
X87944Y123605D02*
D03*
X186000Y432000D02*
D03*
X187318Y438000D02*
D03*
X182000Y435000D02*
D03*
X174444Y432546D02*
D03*
X137500Y445000D02*
D03*
X127444Y448411D02*
D03*
X126500Y459270D02*
D03*
X131500Y452373D02*
D03*
X121000Y446500D02*
D03*
X107000Y445500D02*
D03*
X91000Y444500D02*
D03*
X78500Y445000D02*
D03*
X96000Y467000D02*
D03*
X92500Y463865D02*
D03*
X75000Y470062D02*
D03*
X86500Y467500D02*
D03*
X95500Y472865D02*
D03*
X94500Y479500D02*
D03*
X86500Y477500D02*
D03*
X74000Y478500D02*
D03*
X67684Y480000D02*
D03*
X37000Y448117D02*
D03*
X24566Y453865D02*
D03*
X27602Y461589D02*
D03*
X34500Y459500D02*
D03*
X42500Y461186D02*
D03*
X45000Y470652D02*
D03*
X31000Y474000D02*
D03*
X23500Y473500D02*
D03*
X-73000Y86500D02*
D03*
X-69364Y71000D02*
D03*
X-43418Y60500D02*
D03*
X-54000Y62000D02*
D03*
X-51000Y54865D02*
D03*
X-38296Y50000D02*
D03*
X-29500Y43500D02*
D03*
X-23000Y47500D02*
D03*
X-29160Y52500D02*
D03*
Y58000D02*
D03*
X-25000Y62500D02*
D03*
X-24331Y68898D02*
D03*
X155000Y123542D02*
D03*
X38500Y87165D02*
D03*
X54000Y79715D02*
D03*
X81444Y79997D02*
D03*
X97000Y92500D02*
D03*
X287500Y237265D02*
D03*
X302942Y242500D02*
D03*
X327500Y487928D02*
D03*
X349779Y453000D02*
D03*
X337500Y435500D02*
D03*
X328500Y434000D02*
D03*
X313843Y436500D02*
D03*
X290912Y425365D02*
D03*
X299944Y420500D02*
D03*
X243500Y430000D02*
D03*
X243000Y445000D02*
D03*
X238444Y466000D02*
D03*
Y455877D02*
D03*
X257346Y446000D02*
D03*
X273000Y444853D02*
D03*
X292500Y461000D02*
D03*
X295500Y473000D02*
D03*
X294500Y487736D02*
D03*
X288000Y508786D02*
D03*
X298500Y499500D02*
D03*
X266000Y515500D02*
D03*
X256000Y518000D02*
D03*
X274500Y505765D02*
D03*
X256445Y488531D02*
D03*
Y495802D02*
D03*
X256718Y475266D02*
D03*
X260641Y505765D02*
D03*
X272500Y519000D02*
D03*
X256718Y465000D02*
D03*
X267600Y466447D02*
D03*
X281000Y474500D02*
D03*
X271500Y486000D02*
D03*
X276000Y490000D02*
D03*
X283000Y498500D02*
D03*
X261500Y483500D02*
D03*
X266000Y495500D02*
D03*
X267000Y476000D02*
D03*
X282000Y484086D02*
D03*
X270000Y327000D02*
D03*
Y290000D02*
D03*
X284055Y328000D02*
D03*
X296849Y326365D02*
D03*
X292000Y197500D02*
D03*
X301688Y204161D02*
D03*
X289743Y203577D02*
D03*
X293500Y207113D02*
D03*
X298000Y211500D02*
D03*
X286749D02*
D03*
X291000Y244500D02*
D03*
X377436Y134422D02*
D03*
X351000Y97500D02*
D03*
X313105Y58365D02*
D03*
X-78740Y98425D02*
D03*
X-35900Y59000D02*
D03*
X66000Y47365D02*
D03*
X63943Y123221D02*
D03*
X112294Y121909D02*
D03*
X120000Y138000D02*
D03*
X91500Y138500D02*
D03*
X65000Y140000D02*
D03*
X25865Y141500D02*
D03*
X500Y166000D02*
D03*
X-77500Y181500D02*
D03*
X-31856Y180500D02*
D03*
X-99500Y246500D02*
D03*
X-98000Y222000D02*
D03*
X-84153Y202000D02*
D03*
X0Y195500D02*
D03*
X-1556Y244000D02*
D03*
X-7500Y228500D02*
D03*
X-41256Y272500D02*
D03*
X-43856Y281165D02*
D03*
X-7500Y255500D02*
D03*
X-90500Y252676D02*
D03*
X-105500Y267500D02*
D03*
X-103000Y304500D02*
D03*
X-80000Y319500D02*
D03*
X-38500Y388500D02*
D03*
X-31500Y381500D02*
D03*
X-16000Y291000D02*
D03*
X-13556Y317665D02*
D03*
X-52500Y429440D02*
D03*
X-36816Y425412D02*
D03*
X-30000Y443500D02*
D03*
X-10500Y464500D02*
D03*
X-11033Y487500D02*
D03*
X-11000Y502500D02*
D03*
X16704Y498000D02*
D03*
X47000Y500500D02*
D03*
X78500Y508500D02*
D03*
X63544Y509180D02*
D03*
X44082Y510000D02*
D03*
X31500Y510500D02*
D03*
X27602D02*
D03*
X23000D02*
D03*
D85*
X183849Y87605D02*
D03*
Y80125D02*
D03*
X174038Y83865D02*
D03*
D86*
X214184Y79459D02*
D03*
X206703D02*
D03*
X210444Y89270D02*
D03*
D87*
X181135Y17865D02*
D03*
Y22865D02*
D03*
Y27865D02*
D03*
Y32865D02*
D03*
Y37865D02*
D03*
Y42865D02*
D03*
Y47865D02*
D03*
Y52865D02*
D03*
X203753Y17865D02*
D03*
Y22865D02*
D03*
Y27865D02*
D03*
Y32865D02*
D03*
Y37865D02*
D03*
Y42865D02*
D03*
Y47865D02*
D03*
Y52865D02*
D03*
D88*
X-14485Y134922D02*
D03*
X-5556Y131182D02*
D03*
Y138662D02*
D03*
X-71556Y412605D02*
D03*
Y405125D02*
D03*
X-80485Y408865D02*
D03*
D89*
X331158Y410865D02*
D03*
X368560D02*
D03*
D90*
X304444Y144050D02*
D03*
X308184Y152979D02*
D03*
X300704D02*
D03*
D91*
X340016Y360400D02*
D03*
X341985D02*
D03*
X343953D02*
D03*
X345922D02*
D03*
X347890D02*
D03*
X349859D02*
D03*
X351827D02*
D03*
X353796D02*
D03*
X355764D02*
D03*
X357733D02*
D03*
X359701D02*
D03*
X361670D02*
D03*
Y328329D02*
D03*
X359701D02*
D03*
X357733D02*
D03*
X355764D02*
D03*
X353796D02*
D03*
X351827D02*
D03*
X349859D02*
D03*
X347890D02*
D03*
X345922D02*
D03*
X343953D02*
D03*
X341985D02*
D03*
X340016D02*
D03*
D92*
X366879Y355192D02*
D03*
Y353223D02*
D03*
Y351255D02*
D03*
Y349286D02*
D03*
Y347318D02*
D03*
Y345349D02*
D03*
Y343381D02*
D03*
Y341412D02*
D03*
Y339444D02*
D03*
Y337475D02*
D03*
Y335507D02*
D03*
Y333538D02*
D03*
X334808D02*
D03*
Y335507D02*
D03*
Y337475D02*
D03*
Y339444D02*
D03*
Y341412D02*
D03*
Y343381D02*
D03*
Y345349D02*
D03*
Y347318D02*
D03*
Y349286D02*
D03*
Y351255D02*
D03*
Y353223D02*
D03*
Y355192D02*
D03*
D93*
X129389Y495947D02*
D03*
X147499D02*
D03*
D94*
X197889Y462176D02*
D03*
X206944D02*
D03*
X215999D02*
D03*
D95*
X206944Y438554D02*
D03*
D96*
X225168Y519365D02*
D03*
X215719D02*
D03*
D97*
X197431Y492125D02*
D03*
Y495864D02*
D03*
Y499604D02*
D03*
X208456D02*
D03*
Y495864D02*
D03*
Y492125D02*
D03*
D98*
X195944Y428365D02*
D03*
X204944D02*
D03*
X202444Y472865D02*
D03*
X211444D02*
D03*
M02*
