G04*
G04 #@! TF.GenerationSoftware,Altium Limited,Altium Designer,18.1.8 (232)*
G04*
G04 Layer_Color=32896*
%FSLAX25Y25*%
%MOIN*%
G70*
G01*
G75*
%ADD10C,0.01000*%
%ADD27C,0.00800*%
%ADD28C,0.00500*%
D10*
X96595Y31784D02*
X101094D01*
Y25284D02*
Y31784D01*
X100594Y25284D02*
X101094D01*
X87094Y31784D02*
X91594D01*
X87094Y25784D02*
Y31784D01*
Y25784D02*
X87594D01*
X575463Y31730D02*
X579963D01*
Y25229D02*
Y31730D01*
X579463Y25229D02*
X579963D01*
X565963Y31730D02*
X570463D01*
X565963Y25730D02*
Y31730D01*
Y25730D02*
X566463D01*
X622561Y12765D02*
X621561Y13765D01*
Y15765D01*
X622561Y16764D01*
X626559D01*
X627559Y15765D01*
Y13765D01*
X626559Y12765D01*
X627559Y10766D02*
Y8767D01*
Y9766D01*
X621561D01*
X622561Y10766D01*
X587468Y43007D02*
X588468Y44007D01*
X590467D01*
X591467Y43007D01*
Y39009D01*
X590467Y38009D01*
X588468D01*
X587468Y39009D01*
X582470Y38009D02*
Y44007D01*
X585469Y41008D01*
X581470D01*
X616929Y17323D02*
X610931D01*
Y14324D01*
X611931Y13324D01*
X613930D01*
X614930Y14324D01*
Y17323D01*
Y15324D02*
X616929Y13324D01*
Y7326D02*
Y11325D01*
X612930Y7326D01*
X611931D01*
X610931Y8326D01*
Y10325D01*
X611931Y11325D01*
X591861Y30228D02*
Y25229D01*
X590861Y24229D01*
X588862D01*
X587862Y25229D01*
Y30228D01*
X581864Y24229D02*
X585863D01*
X581864Y28228D01*
Y29228D01*
X582864Y30228D01*
X584863D01*
X585863Y29228D01*
X617126Y108268D02*
G03*
X617126Y108268I-8858J0D01*
G01*
X560040Y184055D02*
G03*
X556103Y187992I-3937J0D01*
G01*
X109252D02*
G03*
X105315Y184055I0J-3937D01*
G01*
X46260Y215551D02*
G03*
X26575Y195866I0J-19685D01*
G01*
X638780D02*
G03*
X619095Y215551I-19685J0D01*
G01*
X630315Y29528D02*
G03*
X630315Y29528I-6299J0D01*
G01*
X65945Y108268D02*
G03*
X65945Y108268I-8858J0D01*
G01*
X47638Y29528D02*
G03*
X47638Y29528I-6299J0D01*
G01*
X560040Y0D02*
X645670D01*
X560040D02*
Y184055D01*
X109252Y187992D02*
X556103D01*
X105315Y0D02*
Y184055D01*
X0Y0D02*
X105315D01*
X0D02*
Y58875D01*
Y55174D02*
Y59055D01*
X26575D01*
Y195866D01*
X46260Y215551D02*
X619095D01*
X638780Y59055D02*
Y195866D01*
Y59055D02*
X645670D01*
Y0D02*
Y59055D01*
D27*
X83071Y7736D02*
G03*
X83071Y12736I-5410J2500D01*
G01*
X72047D02*
G03*
X72047Y7736I5410J-2500D01*
G01*
X89105Y47989D02*
G03*
X89105Y42989I5410J-2500D01*
G01*
X100128D02*
G03*
X100128Y47989I-5410J2500D01*
G01*
X578869Y37871D02*
G03*
X578869Y42871I-5410J2500D01*
G01*
X567845D02*
G03*
X567845Y37871I5410J-2500D01*
G01*
X597680Y6821D02*
G03*
X602680Y6821I2500J5410D01*
G01*
Y17845D02*
G03*
X597680Y17845I-2500J-5410D01*
G01*
X71809Y14823D02*
Y19823D01*
Y14823D02*
X83309D01*
Y19823D01*
X71809D02*
X83309D01*
X77559Y16323D02*
Y18323D01*
Y8736D02*
Y11736D01*
X72047Y12736D02*
X83071D01*
X72047Y7736D02*
X83071D01*
X94617Y43989D02*
Y46989D01*
X89105Y42989D02*
X100128D01*
X89105Y47989D02*
X100128D01*
X589412Y6583D02*
X594412D01*
Y18083D01*
X589412D02*
X594412D01*
X589412Y6583D02*
Y18083D01*
X590912Y12333D02*
X592912D01*
X567845Y42871D02*
X578868D01*
X567845Y37871D02*
X578868D01*
X573357Y38871D02*
Y41871D01*
X602680Y6821D02*
Y17845D01*
X597680Y6821D02*
Y17845D01*
X598680Y12333D02*
X601680D01*
D28*
X83858Y28857D02*
Y26358D01*
X83358Y25858D01*
X82359D01*
X81859Y26358D01*
Y28857D01*
X80859Y25858D02*
X79860D01*
X80359D01*
Y28857D01*
X80859Y28357D01*
X66898Y11554D02*
X67398Y12054D01*
X68398D01*
X68898Y11554D01*
Y9555D01*
X68398Y9055D01*
X67398D01*
X66898Y9555D01*
X65899Y11554D02*
X65399Y12054D01*
X64399D01*
X63899Y11554D01*
Y11055D01*
X64399Y10555D01*
X64899D01*
X64399D01*
X63899Y10055D01*
Y9555D01*
X64399Y9055D01*
X65399D01*
X65899Y9555D01*
X84350Y46414D02*
X84849Y46913D01*
X85849D01*
X86349Y46414D01*
Y44414D01*
X85849Y43914D01*
X84849D01*
X84350Y44414D01*
X81350Y43914D02*
X83350D01*
X81350Y45914D01*
Y46414D01*
X81850Y46913D01*
X82850D01*
X83350Y46414D01*
X68504Y14961D02*
Y17960D01*
X67004D01*
X66505Y17460D01*
Y16460D01*
X67004Y15960D01*
X68504D01*
X67504D02*
X66505Y14961D01*
X65505D02*
X64505D01*
X65005D01*
Y17960D01*
X65505Y17460D01*
M02*
