G04*
G04 #@! TF.GenerationSoftware,Altium Limited,Altium Designer,18.1.8 (232)*
G04*
G04 Layer_Color=16711935*
%FSLAX25Y25*%
%MOIN*%
G70*
G01*
G75*
%ADD10C,0.01000*%
%ADD11R,0.07099X0.07099*%
%ADD12C,0.07099*%
%ADD13C,0.03200*%
%ADD24R,0.05000X0.05000*%
%ADD25R,0.04600X0.04600*%
%ADD26R,0.04600X0.04600*%
D10*
X617126Y108268D02*
G03*
X617126Y108268I-8858J0D01*
G01*
X560040Y184055D02*
G03*
X556103Y187992I-3937J0D01*
G01*
X109252D02*
G03*
X105315Y184055I0J-3937D01*
G01*
X46260Y215551D02*
G03*
X26575Y195866I0J-19685D01*
G01*
X638780D02*
G03*
X619095Y215551I-19685J0D01*
G01*
X630315Y29528D02*
G03*
X630315Y29528I-6299J0D01*
G01*
X65945Y108268D02*
G03*
X65945Y108268I-8858J0D01*
G01*
X47638Y29528D02*
G03*
X47638Y29528I-6299J0D01*
G01*
X560040Y0D02*
X645670D01*
X560040D02*
Y184055D01*
X109252Y187992D02*
X556103D01*
X105315Y0D02*
Y184055D01*
X0Y0D02*
X105315D01*
X0D02*
Y58875D01*
Y55174D02*
Y59055D01*
X26575D01*
Y195866D01*
X46260Y215551D02*
X619095D01*
X638780Y59055D02*
Y195866D01*
Y59055D02*
X645670D01*
Y0D02*
Y59055D01*
D11*
X9183Y16159D02*
D03*
D12*
Y26001D02*
D03*
Y35844D02*
D03*
Y45686D02*
D03*
D13*
X570079Y44488D02*
D03*
Y194488D02*
D03*
X592109Y21260D02*
D03*
X87402Y10236D02*
D03*
X101575Y24409D02*
D03*
X101703Y45276D02*
D03*
X91367Y195669D02*
D03*
X606085Y9971D02*
D03*
D24*
X97795Y24284D02*
D03*
X90395D02*
D03*
X94095Y32283D02*
D03*
X576663Y24229D02*
D03*
X569263D02*
D03*
X572963Y32230D02*
D03*
D25*
X74309Y17323D02*
D03*
X80809D02*
D03*
Y10236D02*
D03*
X74309D02*
D03*
X91367Y45489D02*
D03*
X97867D02*
D03*
X576607Y40371D02*
D03*
X570107D02*
D03*
D26*
X591912Y9083D02*
D03*
Y15583D02*
D03*
X600180Y9083D02*
D03*
Y15583D02*
D03*
M02*
