G04*
G04 #@! TF.GenerationSoftware,Altium Limited,Altium Designer,18.1.8 (232)*
G04*
G04 Layer_Physical_Order=1*
G04 Layer_Color=255*
%FSLAX25Y25*%
%MOIN*%
G70*
G01*
G75*
%ADD10C,0.01000*%
%ADD14C,0.02953*%
%ADD15C,0.03000*%
%ADD16C,0.03937*%
%ADD17C,0.01968*%
%ADD18R,0.06299X0.06299*%
%ADD19C,0.06299*%
%ADD20C,0.02400*%
D10*
X617126Y108268D02*
G03*
X617126Y108268I-8858J0D01*
G01*
X560040Y184055D02*
G03*
X556103Y187992I-3937J0D01*
G01*
X109252D02*
G03*
X105315Y184055I0J-3937D01*
G01*
X46260Y215551D02*
G03*
X26575Y195866I0J-19685D01*
G01*
X638780D02*
G03*
X619095Y215551I-19685J0D01*
G01*
X630315Y29528D02*
G03*
X630315Y29528I-6299J0D01*
G01*
X65945Y108268D02*
G03*
X65945Y108268I-8858J0D01*
G01*
X47638Y29528D02*
G03*
X47638Y29528I-6299J0D01*
G01*
X560040Y0D02*
X645670D01*
X560040D02*
Y184055D01*
X109252Y187992D02*
X556103D01*
X105315Y0D02*
Y184055D01*
X0Y0D02*
X105315D01*
X0D02*
Y58875D01*
Y55174D02*
Y59055D01*
X26575D01*
Y195866D01*
X46260Y215551D02*
X619095D01*
X638780Y59055D02*
Y195866D01*
Y59055D02*
X645670D01*
Y0D02*
Y59055D01*
D14*
X10367Y37027D02*
G03*
X13223Y35844I2856J2856D01*
G01*
D02*
G03*
X10367Y34661I0J-4039D01*
G01*
X607087Y10972D02*
Y43701D01*
X579134Y71653D02*
X607087Y43701D01*
X579134Y71653D02*
Y199606D01*
X606085Y9971D02*
X607087Y10972D01*
X571046Y207694D02*
X579134Y199606D01*
X47372Y207694D02*
X571046D01*
X9183Y35844D02*
X20404D01*
X33593Y49033D01*
Y193914D01*
X47372Y207694D01*
D15*
X101703Y6034D02*
Y45276D01*
X588189Y3543D02*
X592109Y7463D01*
X565696Y3543D02*
X588189D01*
X563514Y5725D02*
X565696Y3543D01*
X563514Y5725D02*
Y190029D01*
X560810Y192733D02*
X563514Y190029D01*
X592109Y7463D02*
Y21260D01*
X106119Y192733D02*
X560810D01*
X20618Y4724D02*
X100394D01*
X9183Y16159D02*
X20618Y4724D01*
X100394D02*
X101703Y6034D01*
Y45276D02*
Y188317D01*
X106119Y192733D01*
D16*
X570079Y44488D02*
X570079Y194488D01*
D17*
X90607Y10236D02*
X91367Y10996D01*
X87402Y10236D02*
X90607D01*
X91367Y190367D02*
X91367Y10996D01*
X91367Y190367D02*
Y195669D01*
D18*
X9183Y16159D02*
D03*
D19*
Y26001D02*
D03*
Y35844D02*
D03*
Y45686D02*
D03*
D20*
X570079Y44488D02*
D03*
Y194488D02*
D03*
X592109Y21260D02*
D03*
X87402Y10236D02*
D03*
X101575Y24409D02*
D03*
X101703Y45276D02*
D03*
X91367Y195669D02*
D03*
X606085Y9971D02*
D03*
M02*
