G04*
G04 #@! TF.GenerationSoftware,Altium Limited,Altium Designer,18.1.8 (232)*
G04*
G04 Layer_Physical_Order=2*
G04 Layer_Color=16711680*
%FSLAX25Y25*%
%MOIN*%
G70*
G01*
G75*
%ADD10C,0.01000*%
%ADD14C,0.02953*%
%ADD15C,0.03000*%
%ADD16C,0.03937*%
%ADD17C,0.01968*%
%ADD18R,0.06299X0.06299*%
%ADD19C,0.06299*%
%ADD20C,0.02400*%
%ADD21R,0.04200X0.04200*%
%ADD22R,0.03800X0.03800*%
%ADD23R,0.03800X0.03800*%
G36*
X84252Y206665D02*
X91339Y199578D01*
X91732D01*
Y199578D01*
X98819Y206665D01*
X84252D01*
D02*
G37*
D10*
X617126Y108268D02*
G03*
X617126Y108268I-8858J0D01*
G01*
X560040Y184055D02*
G03*
X556103Y187992I-3937J0D01*
G01*
X109252D02*
G03*
X105315Y184055I0J-3937D01*
G01*
X46260Y215551D02*
G03*
X26575Y195866I0J-19685D01*
G01*
X638780D02*
G03*
X619095Y215551I-19685J0D01*
G01*
X630315Y29528D02*
G03*
X630315Y29528I-6299J0D01*
G01*
X65945Y108268D02*
G03*
X65945Y108268I-8858J0D01*
G01*
X47638Y29528D02*
G03*
X47638Y29528I-6299J0D01*
G01*
X560040Y0D02*
X645670D01*
X560040D02*
Y184055D01*
X109252Y187992D02*
X556103D01*
X105315Y0D02*
Y184055D01*
X0Y0D02*
X105315D01*
X0D02*
Y58875D01*
Y55174D02*
Y59055D01*
X26575D01*
Y195866D01*
X46260Y215551D02*
X619095D01*
X638780Y59055D02*
Y195866D01*
Y59055D02*
X645670D01*
Y0D02*
Y59055D01*
D14*
X574775Y9083D02*
X600180D01*
X569263Y14595D02*
Y24229D01*
Y14595D02*
X574775Y9083D01*
X569263Y24229D02*
X569713Y23779D01*
X605198Y9083D02*
X606085Y9971D01*
X600180Y9083D02*
X605198D01*
D15*
X592109Y21260D02*
Y35844D01*
X591912Y21063D02*
X592109Y21260D01*
X576607Y40371D02*
X587582D01*
X592109Y35844D01*
X580480Y15583D02*
X591912D01*
Y21063D01*
X576663Y19400D02*
Y24229D01*
Y19400D02*
X580480Y15583D01*
X30709Y10236D02*
X74309D01*
Y17323D02*
Y21553D01*
X77039Y24284D01*
X90395D01*
X101449D02*
X101575Y24409D01*
X97795Y24284D02*
X101449D01*
X97795Y19842D02*
Y24284D01*
X95276Y17323D02*
X97795Y19842D01*
X80809Y17323D02*
X95276D01*
X14944Y26001D02*
X30709Y10236D01*
X9183Y26001D02*
X14944D01*
X74309Y10236D02*
Y17323D01*
X101489Y45489D02*
X101703Y45276D01*
X97867Y45489D02*
X101489D01*
X98080Y45276D02*
X101703D01*
X97867Y45489D02*
X98080Y45276D01*
X576213Y23779D02*
X576663Y24229D01*
D16*
X570079Y194488D02*
Y199213D01*
X562385Y206907D02*
X570079Y199213D01*
X89892Y206907D02*
X562385D01*
X570107Y35086D02*
Y40371D01*
Y35086D02*
X572963Y32230D01*
X9183Y45686D02*
X20798D01*
X33199Y58088D01*
Y195489D01*
X44617Y206907D01*
X89892D01*
X90579Y206220D01*
D17*
X570107Y40371D02*
Y44882D01*
X600180Y15583D02*
Y43127D01*
X596457Y46850D02*
X600180Y43127D01*
X572075Y46850D02*
X596457D01*
X570107Y44882D02*
X572075Y46850D01*
X80809Y10236D02*
X87402D01*
X93829Y32549D02*
X94095Y32283D01*
X93829Y32549D02*
Y37741D01*
X91367Y195669D02*
Y203122D01*
Y45489D02*
Y195669D01*
Y40204D02*
X93829Y37741D01*
X91367Y40204D02*
Y45489D01*
D18*
X9183Y16159D02*
D03*
D19*
Y26001D02*
D03*
Y35844D02*
D03*
Y45686D02*
D03*
D20*
X570079Y44488D02*
D03*
Y194488D02*
D03*
X592109Y21260D02*
D03*
X87402Y10236D02*
D03*
X101575Y24409D02*
D03*
X101703Y45276D02*
D03*
X91367Y195669D02*
D03*
X606085Y9971D02*
D03*
D21*
X97795Y24284D02*
D03*
X90395D02*
D03*
X94095Y32283D02*
D03*
X576663Y24229D02*
D03*
X569263D02*
D03*
X572963Y32230D02*
D03*
D22*
X74309Y17323D02*
D03*
X80809D02*
D03*
Y10236D02*
D03*
X74309D02*
D03*
X91367Y45489D02*
D03*
X97867D02*
D03*
X576607Y40371D02*
D03*
X570107D02*
D03*
D23*
X591912Y9083D02*
D03*
Y15583D02*
D03*
X600180Y9083D02*
D03*
Y15583D02*
D03*
M02*
